<mxfile host="Electron" modified="2023-05-31T14:10:20.074Z" agent="Mozilla/5.0 (Windows NT 10.0; Win64; x64) AppleWebKit/537.36 (KHTML, like Gecko) draw.io/21.2.8 Chrome/112.0.5615.165 Electron/24.2.0 Safari/537.36" etag="PFYXCTRwYzJh-Bu4AxKk" version="21.2.8" type="device">
  <diagram name="第 1 页" id="Zo8J03auQHETidrPXCGJ">
    <mxGraphModel dx="1434" dy="836" grid="1" gridSize="10" guides="1" tooltips="1" connect="1" arrows="1" fold="1" page="1" pageScale="1" pageWidth="827" pageHeight="1169" math="0" shadow="0">
      <root>
        <mxCell id="0" />
        <mxCell id="1" parent="0" />
        <mxCell id="Ax1zpurAWLt4gDFZBOKB-28" value="" style="shape=image;verticalLabelPosition=bottom;labelBackgroundColor=default;verticalAlign=top;imageAspect=0;image=data:image/png,iVBORw0KGgoAAAANSUhEUgAAAYUAAAGFCAYAAAASI+9IAAAAOXRFWHRTb2Z0d2FyZQBNYXRwbG90bGliIHZlcnNpb24zLjcuMSwgaHR0cHM6Ly9tYXRwbG90bGliLm9yZy/bCgiHAAAACXBIWXMAAA9hAAAPYQGoP6dpAAAJPUlEQVR4nO3cTYjOex/H8f/luTQ2FErKRlZYKAt5WImkbJgSlkIpEtnZiQWdhRKKLCzsLFHTSJLykKWFEIlSMilP4TqLuz5135265/s/5hqueb3W8+n3zzlz3n6L8+t0u91uAwBN00wa7w8A4PchCgCEKAAQogBAiAIAIQoAhCgAEKIAQEwZ7Q8uWrRoLL+D//H8+fNWu179c3rx4kVPzgF+ndH8v8puCgCEKAAQogBAiAIAIQoAhCgAEKIAQIgCACEKAIQoABCiAECIAgDR6Y7mhaSmaTqdzlh/CwBjyIN4AJSIAgAhCgCEKAAQogBAiAIAIQoAhCgAEKIAQIgCACEKAIQoABBTxvsD4P85duxYebNr167yZnBwsLx58OBBeQO/MzcFAEIUAAhRACBEAYAQBQBCFAAIUQAgRAGAEAUAQhQACFEAIEQBgBAFAMIrqfTMunXrWu12795d3nz69Km8WbFiRXnjlVT6jZsCACEKAIQoABCiAECIAgAhCgCEKAAQogBAiAIAIQoAhCgAEKIAQHS63W53VD/Y6Yz1t/AHGRgYKG+ePXvW6qzLly+XN0ePHi1vRvmr8F9+/PhR3sB4Gc2/424KAIQoABCiAECIAgAhCgCEKAAQogBAiAIAIQoAhCgAEKIAQIgCADFlvD+AP9PevXvLmy9fvrQ669SpU+XN9+/fW50FE52bAgAhCgCEKAAQogBAiAIAIQoAhCgAEKIAQIgCACEKAIQoABCiAEB4EI9Wjhw5Ut6cO3eu1Vlv3rxptQPq3BQACFEAIEQBgBAFAEIUAAhRACBEAYAQBQBCFAAIUQAgRAGAEAUAwoN4NAMDA+XN9OnTy5snT56UN0BvuSkAEKIAQIgCACEKAIQoABCiAECIAgAhCgCEKAAQogBAiAIAIQoAhCgAEF5JpdmwYUNPzrl+/XpPzgHac1MAIEQBgBAFAEIUAAhRACBEAYAQBQBCFAAIUQAgRAGAEAUAQhQACA/i0ezZs6e8+fr1a3nz7t278gboLTcFAEIUAAhRACBEAYAQBQBCFAAIUQAgRAGAEAUAQhQACFEAIEQBgPAgXp/pdDrlzezZs8uboaGh8oZ/Z926deXN4ODgr/+Qf/Dhw4fy5vbt263Oun79ennT7XZbnTURuSkAEKIAQIgCACEKAIQoABCiAECIAgAhCgCEKAAQogBAiAIAIQoAhAfx+sz8+fPLm6VLl5Y3J0+eLG/60bRp08qbEydOtDrrwIED5c3Lly/Lm48fP/bknH379pU3TdM0W7duLW9u3rzZ6qyJyE0BgBAFAEIUAAhRACBEAYAQBQBCFAAIUQAgRAGAEAUAQhQACFEAIEQBgPBKKq28e/duvD/hl5s0qf53pAsXLpQ3O3fuLG+apt2ropcuXSpvvn79Wt60sWXLlla7c+fOlTfLly8vb0ZGRsqbfuCmAECIAgAhCgCEKAAQogBAiAIAIQoAhCgAEKIAQIgCACEKAIQoABAexOszCxcu7Mk59+/f78k5vXTmzJnyZv369T3ZNE3TDA0NlTfdbrfVWb1w48aNVrsZM2aUNzNnzixvPIgHwIQnCgCEKAAQogBAiAIAIQoAhCgAEKIAQIgCACEKAIQoABCiAEB4EK/PzJ07d7w/4bcwb9688mbz5s3lzfbt28ub4eHh8qYfff78udXu6dOn5c3q1avLm6tXr5Y3/cBNAYAQBQBCFAAIUQAgRAGAEAUAQhQACFEAIEQBgBAFAEIUAAhRACA8iNdnvn371pNzFixYUN6MjIyMwZf8sx07dpQ3bR7Ru3v3bnlD7w0MDIz3J/wx3BQACFEAIEQBgBAFAEIUAAhRACBEAYAQBQBCFAAIUQAgRAGAEAUAwoN4febOnTvlzdu3b8ubPXv2lDf79+8vb9q6d+9eeTNlSv3XYe3ateXNzZs3y5t+1ObPu2maZtasWeXNhw8fWp01EbkpABCiAECIAgAhCgCEKAAQogBAiAIAIQoAhCgAEKIAQIgCACEKAIQoABBeSe0zHz9+LG9ev35d3mzdurW8OXjwYHnTNE3z/fv38ub9+/flzc+fP8ubyZMnlzf8R9tXc+fNm1feDA0NtTprInJTACBEAYAQBQBCFAAIUQAgRAGAEAUAQhQACFEAIEQBgBAFAEIUAIhOt9vtjuoHO52x/hbGyeDgYHlz5cqV8ubs2bPlTdO0fzit6vz58+XNpk2bypuLFy+WN03TNF++fGm1q7pz5055s3DhwvLmwoUL5U3TNM3GjRvLm+Hh4VZn9ZvR/OfeTQGAEAUAQhQACFEAIEQBgBAFAEIUAAhRACBEAYAQBQBCFAAIUQAgPIhHK1evXi1vtmzZ0uqsv/76q7w5ffp0eTMyMlLebNiwobyZM2dOedM07X4Hp02bVt4sXry4vFm2bFl5c+jQofKmaZrm4cOHrXZ4EA+AIlEAIEQBgBAFAEIUAAhRACBEAYAQBQBCFAAIUQAgRAGAEAUAwoN4tDJ16tTy5vjx463OOnDgQHnz+vXr8ubatWvlzatXr8qbtto8KLhq1aryZmhoqLw5fPhwefP48ePyhn/Hg3gAlIgCACEKAIQoABCiAECIAgAhCgCEKAAQogBAiAIAIQoAhCgAEB7E47e3cuXK8mbbtm3lzZo1a8qbJUuWlDe3bt0qb5qmaR49elTe3L59u7wZHh4ub37+/Fne0HsexAOgRBQACFEAIEQBgBAFAEIUAAhRACBEAYAQBQBCFAAIUQAgRAGAEAUAwiupABOEV1IBKBEFAEIUAAhRACBEAYAQBQBCFAAIUQAgRAGAEAUAQhQACFEAIEQBgBAFAEIUAAhRACBEAYAQBQBCFAAIUQAgRAGAEAUAQhQACFEAIEQBgBAFAEIUAAhRACBEAYAQBQBCFAAIUQAgRAGAEAUAQhQACFEAIEQBgBAFAEIUAAhRACBEAYAQBQBCFAAIUQAgRAGAEAUAQhQACFEAIEQBgBAFAEIUAAhRACBEAYAQBQBCFAAIUQAgRAGAEAUAQhQACFEAIEQBgBAFAEIUAAhRACBEAYAQBQBCFAAIUQAgRAGAEAUAQhQACFEAIEQBgBAFAEIUAAhRACBEAYAQBQBiymh/sNvtjuV3APAbcFMAIEQBgBAFAEIUAAhRACBEAYAQBQBCFAAIUQAg/gaKljwAs8sbxwAAAABJRU5ErkJggg==;" vertex="1" parent="1">
          <mxGeometry x="680" y="200" width="100" height="100" as="geometry" />
        </mxCell>
        <mxCell id="Ax1zpurAWLt4gDFZBOKB-43" value="" style="rounded=1;whiteSpace=wrap;html=1;fillColor=#fff2cc;strokeColor=#d6b656;" vertex="1" parent="1">
          <mxGeometry x="350" y="90" width="180" height="230" as="geometry" />
        </mxCell>
        <mxCell id="Ax1zpurAWLt4gDFZBOKB-51" value="" style="rounded=1;whiteSpace=wrap;html=1;fillColor=none;dashed=1;dashPattern=8 8;" vertex="1" parent="1">
          <mxGeometry x="375.62" y="239" width="133.75" height="60" as="geometry" />
        </mxCell>
        <mxCell id="Ax1zpurAWLt4gDFZBOKB-55" style="edgeStyle=orthogonalEdgeStyle;rounded=0;orthogonalLoop=1;jettySize=auto;html=1;entryX=-0.001;entryY=0.797;entryDx=0;entryDy=0;entryPerimeter=0;strokeWidth=5;" edge="1" parent="1" source="Ax1zpurAWLt4gDFZBOKB-50" target="Ax1zpurAWLt4gDFZBOKB-24">
          <mxGeometry relative="1" as="geometry" />
        </mxCell>
        <mxCell id="Ax1zpurAWLt4gDFZBOKB-50" value="" style="rounded=1;whiteSpace=wrap;html=1;fillColor=none;dashed=1;dashPattern=8 8;" vertex="1" parent="1">
          <mxGeometry x="376.25" y="150" width="133.75" height="60" as="geometry" />
        </mxCell>
        <mxCell id="Ax1zpurAWLt4gDFZBOKB-1" value="" style="shape=image;verticalLabelPosition=bottom;labelBackgroundColor=default;verticalAlign=top;imageAspect=0;image=data:image/png,iVBORw0KGgoAAAANSUhEUgAAAYUAAAGFCAYAAAASI+9IAAAAOXRFWHRTb2Z0d2FyZQBNYXRwbG90bGliIHZlcnNpb24zLjcuMSwgaHR0cHM6Ly9tYXRwbG90bGliLm9yZy/bCgiHAAAACXBIWXMAAA9hAAAPYQGoP6dpAAAJLklEQVR4nO3cTYiO+x/H8ev2XBobCqUpG1lhoSzEsRJJ2TAlLIVSJLKzEwuyUEKRhYWdJVPTSJLykKWFJBKlZFKewn0W//rUv85ivtc5cw/3vF7r+fhdncx5n9/i/DrdbrfbAEDTNNMm+wMA+H2IAgAhCgCEKAAQogBAiAIAIQoAhCgAEDMm8g9funTpRP7xTKKXL19O9icAReP5f5XdFAAIUQAgRAGAEAUAQhQACFEAIEQBgBAFAEIUAAhRACBEAYAQBQBi3A/idTqdifwOAH4DbgoAhCgAEKIAQIgCACEKAIQoABCiAECIAgAhCgCEKAAQogBAiAIAMe4H8WCynDhxorzZs2dPeTM0NFTePHr0qLyB35mbAgAhCgCEKAAQogBAiAIAIQoAhCgAEKIAQIgCACEKAIQoABCiAECIAgDhlVR6ZsOGDa12e/fuLW8+f/5c3qxevbq88Uoq/cZNAYAQBQBCFAAIUQAgRAGAEAUAQhQACFEAIEQBgBAFAEIUAAhRACA63W63O64f7HQm+lv4gwwMDJQ3L168aHXWtWvXypvjx4+XN+P8Vfg/P3/+LG9gsozn77ibAgAhCgCEKAAQogBAiAIAIQoAhCgAEKIAQIgCACEKAIQoABCiAEDMmOwP4M+0f//+8ubr16+tzjpz5kx58+PHj1ZnwVTnpgBAiAIAIQoAhCgAEKIAQIgCACEKAIQoABCiAECIAgAhCgCEKAAQHsSjlWPHjpU3Fy9ebHXW27dvW+2AOjcFAEIUAAhRACBEAYAQBQBCFAAIUQAgRAGAEAUAQhQACFEAIEQBgPAgHs3AwEB5M3v27PLm2bNn5Q3QW24KAIQoABCiAECIAgAhCgCEKAAQogBAiAIAIQoAhCgAEKIAQIgCACEKAIRXUmk2bdrUk3Nu3brVk3OA9twUAAhRACBEAYAQBQBCFAAIUQAgRAGAEAUAQhQACFEAIEQBgBAFAMKDeDT79u0rb759+1bevH//vrwBestNAYAQBQBCFAAIUQAgRAGAEAUAQhQACFEAIEQBgBAFAEIUAAhRACA8iNdnOp1OeTN//vzyZmRkpLzh39mwYUN5MzQ09N9/yD/4+PFjeXP37t1WZ926dau86Xa7rc6aitwUAAhRACBEAYAQBQBCFAAIUQAgRAGAEAUAQhQACFEAIEQBgBAFAMKDeH1m8eLF5c2KFSvKm9OnT5c3/WjWrFnlzalTp1qddejQofLm1atX5c2nT596cs6BAwfKm6Zpmu3bt5c3w8PDrc6aitwUAAhRACBEAYAQBQBCFAAIUQAgRAGAEAUAQhQACFEAIEQBgBAFAEIUAAivpNLK+/fvJ/sT/nPTptX/G+ny5cvlze7du8ubpmn3qujVq1fLm2/fvpU3bWzbtq3V7uLFi+XNqlWrypuxsbHyph+4KQAQogBAiAIAIQoAhCgAEKIAQIgCACEKAIQoABCiAECIAgAhCgCEB/H6zODgYE/OefjwYU/O6aXz58+XNxs3buzJpmmaZmRkpLzpdrutzuqF27dvt9rNmTOnvJk7d25540E8AKY8UQAgRAGAEAUAQhQACFEAIEQBgBAFAEIUAAhRACBEAYAQBQDCg3h9ZuHChZP9Cb+FRYsWlTdbt24tb3bu3FnejI6Oljf96MuXL612z58/L2/WrVtX3ty4caO86QduCgCEKAAQogBAiAIAIQoAhCgAEKIAQIgCACEKAIQoABCiAECIAgDhQbw+8/37956cs2TJkvJmbGxsAr7kn+3atau8afOI3v3798sbem9gYGCyP+GP4aYAQIgCACEKAIQoABCiAECIAgAhCgCEKAAQogBAiAIAIQoAhCgAEB7E6zP37t0rb969e1fe7Nu3r7w5ePBgedPWgwcPypsZM+q/Dn/99Vd5Mzw8XN70ozb/vJumaebNm1fefPz4sdVZU5GbAgAhCgCEKAAQogBAiAIAIQoAhCgAEKIAQIgCACEKAIQoABCiAECIAgDhldQ+8+nTp/LmzZs35c327dvLm8OHD5c3TdM0P378KG8+fPhQ3vz69au8mT59ennD/7R9NXfRokXlzcjISKuzpiI3BQBCFAAIUQAgRAGAEAUAQhQACFEAIEQBgBAFAEIUAAhRACBEAYDodLvd7rh+sNOZ6G9hkgwNDZU3169fL28uXLhQ3jRN+4fTqi5dulTebNmypby5cuVKedM0TfP169dWu6p79+6VN4ODg+XN5cuXy5umaZrNmzeXN6Ojo63O6jfj+de9mwIAIQoAhCgAEKIAQIgCACEKAIQoABCiAECIAgAhCgCEKAAQogBAeBCPVm7cuFHebNu2rdVZ586dK2/Onj1b3oyNjZU3mzZtKm8WLFhQ3jRNu9/BWbNmlTfLli0rb1auXFneHDlypLxpmqZ5/Phxqx0exAOgSBQACFEAIEQBgBAFAEIUAAhRACBEAYAQBQBCFAAIUQAgRAGA8CAercycObO8OXnyZKuzDh06VN68efOmvLl582Z58/r16/KmrTYPCq5du7a8GRkZKW+OHj1a3jx9+rS84d/xIB4AJaIAQIgCACEKAIQoABCiAECIAgAhCgCEKAAQogBAiAIAIQoAhAfx+O2tWbOmvNmxY0d5s379+vJm+fLl5c2dO3fKm6ZpmidPnpQ3d+/eLW9GR0fLm1+/fpU39J4H8QAoEQUAQhQACFEAIEQBgBAFAEIUAAhRACBEAYAQBQBCFAAIUQAgRAGA8EoqwBThlVQASkQBgBAFAEIUAAhRACBEAYAQBQBCFAAIUQAgRAGAEAUAQhQACFEAIEQBgBAFAEIUAAhRACBEAYAQBQBCFAAIUQAgRAGAEAUAQhQACFEAIEQBgBAFAEIUAAhRACBEAYAQBQBCFAAIUQAgRAGAEAUAQhQACFEAIEQBgBAFAEIUAAhRACBEAYAQBQBCFAAIUQAgRAGAEAUAQhQACFEAIEQBgBAFAEIUAAhRACBEAYAQBQBCFAAIUQAgRAGAEAUAQhQACFEAIEQBgBAFAEIUAAhRACBEAYAQBQBCFAAIUQAgRAGAEAUAQhQACFEAIEQBgBAFAEIUAAhRACBEAYCYMd4f7Ha7E/kdAPwG3BQACFEAIEQBgBAFAEIUAAhRACBEAYAQBQBCFACIvwH0pjIKBtoW0QAAAABJRU5ErkJggg==;" vertex="1" parent="1">
          <mxGeometry width="100" height="100" as="geometry" />
        </mxCell>
        <mxCell id="Ax1zpurAWLt4gDFZBOKB-2" value="" style="shape=image;verticalLabelPosition=bottom;labelBackgroundColor=default;verticalAlign=top;imageAspect=0;image=data:image/png,iVBORw0KGgoAAAANSUhEUgAAAYUAAAGFCAYAAAASI+9IAAAAOXRFWHRTb2Z0d2FyZQBNYXRwbG90bGliIHZlcnNpb24zLjcuMSwgaHR0cHM6Ly9tYXRwbG90bGliLm9yZy/bCgiHAAAACXBIWXMAAA9hAAAPYQGoP6dpAAAJO0lEQVR4nO3cTYjOex/H8f/luTQ2FEpTNrLCQlnIw0okZcOUsBRKkcjOTizIQglFFhZ2lkxNI0nKQ5YWQiRKyaQ8hete3PWpu07d8/2f4xrnmtdrPZ/z+3c64+23OL9Ot9vtNgDQNM2Uif4AAP4cogBAiAIAIQoAhCgAEKIAQIgCACEKAMS08f7g4sWLy//wFy9elDdtzqH3Xr58OdGfABSN5/9VdlMAIEQBgBAFAEIUAAhRACBEAYAQBQBCFAAIUQAgRAGAEAUAQhQAiE53PC8kNU3T6XR+97cA8Bt5EA+AElEAIEQBgBAFAEIUAAhRACBEAYAQBQBCFAAIUQAgRAGAEAUAYtpEfwD8P8ePHy9vdu/eXd4MDQ2VNw8fPixv4E/mpgBAiAIAIQoAhCgAEKIAQIgCACEKAIQoABCiAECIAgAhCgCEKAAQogBAeCWVnlm/fn2r3Z49e8qbz58/lzcrV64sb7ySSr9xUwAgRAGAEAUAQhQACFEAIEQBgBAFAEIUAAhRACBEAYAQBQBCFACITrfb7Y7rBzud3/0t/IsMDAyUN8+fP2911tWrV8ubY8eOlTfj/FX4Hz9//ixvYKKM579xNwUAQhQACFEAIEQBgBAFAEIUAAhRACBEAYAQBQBCFAAIUQAgRAGAmDbRH8C/0759+8qbr1+/tjrr9OnT5c2PHz9anQWTnZsCACEKAIQoABCiAECIAgAhCgCEKAAQogBAiAIAIQoAhCgAEKIAQHgQj1aOHj1a3ly4cKHVWW/fvm21A+rcFAAIUQAgRAGAEAUAQhQACFEAIEQBgBAFAEIUAAhRACBEAYAQBQDCg3g0AwMD5c3MmTPLm6dPn5Y3QG+5KQAQogBAiAIAIQoAhCgAEKIAQIgCACEKAIQoABCiAECIAgAhCgCEKAAQXkml2bhxY0/OuXnzZk/OAdpzUwAgRAGAEAUAQhQACFEAIEQBgBAFAEIUAAhRACBEAYAQBQBCFAAID+LR7N27t7z59u1befP+/fvyBugtNwUAQhQACFEAIEQBgBAFAEIUAAhRACBEAYAQBQBCFAAIUQAgRAGA8CBen+l0OuXN3Llzy5uRkZHyhr9n/fr15c3Q0NA//yF/4ePHj+XNnTt3Wp118+bN8qbb7bY6azJyUwAgRAGAEAUAQhQACFEAIEQBgBAFAEIUAAhRACBEAYAQBQBCFAAID+L1mYULF5Y3y5YtK29OnTpV3vSjGTNmlDcnT55sddbBgwfLm1evXpU3nz596sk5+/fvL2+apmm2bdtW3gwPD7c6azJyUwAgRAGAEAUAQhQACFEAIEQBgBAFAEIUAAhRACBEAYAQBQBCFAAIUQAgvJJKK+/fv5/oT/jHTZlS/zvSpUuXyptdu3aVN03T7lXRK1eulDffvn0rb9rYunVrq92FCxfKmxUrVpQ3Y2Nj5U0/cFMAIEQBgBAFAEIUAAhRACBEAYAQBQBCFAAIUQAgRAGAEAUAQhQACA/i9ZnBwcGenPPgwYOenNNL586dK282bNjQk03TNM3IyEh50+12W53VC7du3Wq1mzVrVnkze/bs8saDeABMeqIAQIgCACEKAIQoABCiAECIAgAhCgCEKAAQogBAiAIAIQoAhAfx+sz8+fMn+hP+CAsWLChvtmzZUt7s2LGjvBkdHS1v+tGXL19a7Z49e1berFmzpry5fv16edMP3BQACFEAIEQBgBAFAEIUAAhRACBEAYAQBQBCFAAIUQAgRAGAEAUAwoN4feb79+89OWfRokXlzdjY2G/4kr+2c+fO8qbNI3r37t0rb+i9gYGBif6Efw03BQBCFAAIUQAgRAGAEAUAQhQACFEAIEQBgBAFAEIUAAhRACBEAYDwIF6fuXv3bnnz7t278mbv3r3lzYEDB8qbtu7fv1/eTJtW/3VYt25deTM8PFze9KM2/76bpmnmzJlT3nz8+LHVWZORmwIAIQoAhCgAEKIAQIgCACEKAIQoABCiAECIAgAhCgCEKAAQogBAiAIA4ZXUPvPp06fy5s2bN+XNtm3byptDhw6VN03TND9+/ChvPnz4UN78+vWrvJk6dWp5w3+1fTV3wYIF5c3IyEirsyYjNwUAQhQACFEAIEQBgBAFAEIUAAhRACBEAYAQBQBCFAAIUQAgRAGA6HS73e64frDT+d3fwgQZGhoqb65du1benD9/vrxpmvYPp1VdvHixvNm8eXN5c/ny5fKmaZrm69evrXZVd+/eLW8GBwfLm0uXLpU3TdM0mzZtKm9GR0dbndVvxvPHvZsCACEKAIQoABCiAECIAgAhCgCEKAAQogBAiAIAIQoAhCgAEKIAQHgQj1auX79e3mzdurXVWWfPni1vzpw5U96MjY2VNxs3bixv5s2bV940TbvfwRkzZpQ3S5YsKW+WL19e3hw+fLi8aZqmefToUasdHsQDoEgUAAhRACBEAYAQBQBCFAAIUQAgRAGAEAUAQhQACFEAIEQBgPAgHq1Mnz69vDlx4kSrsw4ePFjevHnzpry5ceNGefP69evypq02DwquXr26vBkZGSlvjhw5Ut48efKkvOHv8SAeACWiAECIAgAhCgCEKAAQogBAiAIAIQoAhCgAEKIAQIgCACEKAIQH8fjjrVq1qrzZvn17ebN27dryZunSpeXN7du3y5umaZrHjx+XN3fu3ClvRkdHy5tfv36VN/SeB/EAKBEFAEIUAAhRACBEAYAQBQBCFAAIUQAgRAGAEAUAQhQACFEAIEQBgPBKKsAk4ZVUAEpEAYAQBQBCFAAIUQAgRAGAEAUAQhQACFEAIEQBgBAFAEIUAAhRACBEAYAQBQBCFAAIUQAgRAGAEAUAQhQACFEAIEQBgBAFAEIUAAhRACBEAYAQBQBCFAAIUQAgRAGAEAUAQhQACFEAIEQBgBAFAEIUAAhRACBEAYAQBQBCFAAIUQAgRAGAEAUAQhQACFEAIEQBgBAFAEIUAAhRACBEAYAQBQBCFAAIUQAgRAGAEAUAQhQACFEAIEQBgBAFAEIUAAhRACBEAYAQBQBCFAAIUQAgRAGAEAUAQhQACFEAIEQBgBAFAEIUAAhRACBEAYAQBQBCFAAIUQAgRAGAmDbeH+x2u7/zOwD4A7gpABCiAECIAgAhCgCEKAAQogBAiAIAIQoAhCgAEP8BQF48AJaetWYAAAAASUVORK5CYII=;" vertex="1" parent="1">
          <mxGeometry x="100" width="100" height="100" as="geometry" />
        </mxCell>
        <mxCell id="Ax1zpurAWLt4gDFZBOKB-3" value="" style="shape=image;verticalLabelPosition=bottom;labelBackgroundColor=default;verticalAlign=top;imageAspect=0;image=data:image/png,iVBORw0KGgoAAAANSUhEUgAAAYUAAAGFCAYAAAASI+9IAAAAOXRFWHRTb2Z0d2FyZQBNYXRwbG90bGliIHZlcnNpb24zLjcuMSwgaHR0cHM6Ly9tYXRwbG90bGliLm9yZy/bCgiHAAAACXBIWXMAAA9hAAAPYQGoP6dpAAAJOklEQVR4nO3cTYjO6x/H8d/tuTQ2FErKRlZYKAt5WImkbJgSlkIpEtnZiQVZKKHIwsLOEjWNJCkPWVoIkSglk/IU7rM49al/nfrP93fO3MM9r9d6Pl2/Tme8XQtXp9vtdhsAaJpm0nh/AAC/D1EAIEQBgBAFAEIUAAhRACBEAYAQBQBiymh/cNGiRWP5HfHixYtWu159H397+fLleH8CUDSaf6vspgBAiAIAIQoAhCgAEKIAQIgCACEKAIQoABCiAECIAgAhCgCEKAAQne5oXkhqmqbT6Yz1twAwhjyIB0CJKAAQogBAiAIAIQoAhCgAEKIAQIgCACEKAIQoABCiAECIAgAxZbw/AP6fY8eOlTe7du0qbwYHB8ubhw8fljfwO3NTACBEAYAQBQBCFAAIUQAgRAGAEAUAQhQACFEAIEQBgBAFAEIUAAhRACC8kkrPrFu3rtVu9+7d5c3nz5/LmxUrVpQ3Xkml37gpABCiAECIAgAhCgCEKAAQogBAiAIAIQoAhCgAEKIAQIgCACEKAESn2+12R/WDnc5Yfwt/kIGBgfLm+fPnrc66cuVKeXP06NHyZpS/Cv/j58+f5Q2Ml9H8P+6mAECIAgAhCgCEKAAQogBAiAIAIQoAhCgAEKIAQIgCACEKAIQoABBTxvsD+DPt3bu3vPn69Wurs06dOlXe/Pjxo9VZMNG5KQAQogBAiAIAIQoAhCgAEKIAQIgCACEKAIQoABCiAECIAgAhCgCEB/Fo5ciRI+XN+fPnW5319u3bVjugzk0BgBAFAEIUAAhRACBEAYAQBQBCFAAIUQAgRAGAEAUAQhQACFEAIDyIRzMwMFDeTJ8+vbx5+vRpeQP0lpsCACEKAIQoABCiAECIAgAhCgCEKAAQogBAiAIAIQoAhCgAEKIAQIgCAOGVVJoNGzb05JwbN2705BygPTcFAEIUAAhRACBEAYAQBQBCFAAIUQAgRAGAEAUAQhQACFEAIEQBgPAgHs2ePXvKm2/fvpU379+/L2+A3nJTACBEAYAQBQBCFAAIUQAgRAGAEAUAQhQACFEAIEQBgBAFAEIUAAgP4vWZTqdT3syePbu8GRoaKm/4d9atW1feDA4O/vcf8g8+fvxY3ty5c6fVWTdu3Chvut1uq7MmIjcFAEIUAAhRACBEAYAQBQBCFAAIUQAgRAGAEAUAQhQACFEAIEQBgPAgXp+ZP39+ebN06dLy5uTJk+VNP5o2bVp5c+LEiVZnHThwoLx59epVefPp06eenLNv377ypmmaZuvWreXNrVu3Wp01EbkpABCiAECIAgAhCgCEKAAQogBAiAIAIQoAhCgAEKIAQIgCACEKAIQoABBeSaWV9+/fj/cn/OcmTar/HenixYvlzc6dO8ubpmn3qujly5fLm2/fvpU3bWzZsqXV7vz58+XN8uXLy5uRkZHyph+4KQAQogBAiAIAIQoAhCgAEKIAQIgCACEKAIQoABCiAECIAgAhCgCEB/H6zMKFC3tyzoMHD3pyTi+dPXu2vFm/fn1PNk3TNENDQ+VNt9ttdVYv3Lx5s9VuxowZ5c3MmTPLGw/iATDhiQIAIQoAhCgAEKIAQIgCACEKAIQoABCiAECIAgAhCgCEKAAQHsTrM3Pnzh3vT/gtzJs3r7zZvHlzebN9+/byZnh4uLzpR1++fGm1e/bsWXmzevXq8ubatWvlTT9wUwAgRAGAEAUAQhQACFEAIEQBgBAFAEIUAAhRACBEAYAQBQBCFAAID+L1me/fv/fknAULFpQ3IyMjY/Al/2zHjh3lTZtH9O7du1fe0HsDAwPj/Ql/DDcFAEIUAAhRACBEAYAQBQBCFAAIUQAgRAGAEAUAQhQACFEAIEQBgPAgXp+5e/duefPu3bvyZs+ePeXN/v37y5u27t+/X95MmVL/dVi7dm15c+vWrfKmH7X57900TTNr1qzy5uPHj63OmojcFAAIUQAgRAGAEAUAQhQACFEAIEQBgBAFAEIUAAhRACBEAYAQBQBCFAAIr6T2mU+fPpU3b968KW+2bt1a3hw8eLC8aZqm+fHjR3nz4cOH8ubXr1/lzeTJk8sb/tb21dx58+aVN0NDQ63OmojcFAAIUQAgRAGAEAUAQhQACFEAIEQBgBAFAEIUAAhRACBEAYAQBQCi0+12u6P6wU5nrL+FcTI4OFjeXL16tbw5d+5cedM07R9Oq7pw4UJ5s2nTpvLm0qVL5U3TNM3Xr19b7aru3r1b3ixcuLC8uXjxYnnTNE2zcePG8mZ4eLjVWf1mNH/cuykAEKIAQIgCACEKAIQoABCiAECIAgAhCgCEKAAQogBAiAIAIQoAhAfxaOXatWvlzZYtW1qddebMmfLm9OnT5c3IyEh5s2HDhvJmzpw55U3TtPsdnDZtWnmzePHi8mbZsmXlzaFDh8qbpmmaR48etdrhQTwAikQBgBAFAEIUAAhRACBEAYAQBQBCFAAIUQAgRAGAEAUAQhQACA/i0crUqVPLm+PHj7c668CBA+XNmzdvypvr16+XN69fvy5v2mrzoOCqVavKm6GhofLm8OHD5c2TJ0/KG/4dD+IBUCIKAIQoABCiAECIAgAhCgCEKAAQogBAiAIAIQoAhCgAEKIAQHgQj9/eypUry5tt27aVN2vWrClvlixZUt7cvn27vGmapnn8+HF5c+fOnfJmeHi4vPn161d5Q+95EA+AElEAIEQBgBAFAEIUAAhRACBEAYAQBQBCFAAIUQAgRAGAEAUAQhQACK+kAkwQXkkFoEQUAAhRACBEAYAQBQBCFAAIUQAgRAGAEAUAQhQACFEAIEQBgBAFAEIUAAhRACBEAYAQBQBCFAAIUQAgRAGAEAUAQhQACFEAIEQBgBAFAEIUAAhRACBEAYAQBQBCFAAIUQAgRAGAEAUAQhQACFEAIEQBgBAFAEIUAAhRACBEAYAQBQBCFAAIUQAgRAGAEAUAQhQACFEAIEQBgBAFAEIUAAhRACBEAYAQBQBCFAAIUQAgRAGAEAUAQhQACFEAIEQBgBAFAEIUAAhRACBEAYAQBQBCFAAIUQAgRAGAEAUAQhQACFEAIEQBgBAFAEIUAAhRACBEAYAQBQBCFACIKaP9wW63O5bfAcBvwE0BgBAFAEIUAAhRACBEAYAQBQBCFAAIUQAgRAGA+AuiwzwAt73fPwAAAABJRU5ErkJggg==;" vertex="1" parent="1">
          <mxGeometry x="200" width="100" height="100" as="geometry" />
        </mxCell>
        <mxCell id="Ax1zpurAWLt4gDFZBOKB-4" value="" style="shape=image;verticalLabelPosition=bottom;labelBackgroundColor=default;verticalAlign=top;imageAspect=0;image=data:image/png,iVBORw0KGgoAAAANSUhEUgAAAYUAAAGFCAYAAAASI+9IAAAAOXRFWHRTb2Z0d2FyZQBNYXRwbG90bGliIHZlcnNpb24zLjcuMSwgaHR0cHM6Ly9tYXRwbG90bGliLm9yZy/bCgiHAAAACXBIWXMAAA9hAAAPYQGoP6dpAAAJRUlEQVR4nO3cMWiVZx/G4feoVUHSRUEFEVykkzoIDmLNJBYRXDQg1VGsICiidHMTHSwOgqjQ0sEhm2MUQkRECrXi6CC1VEKFgBgCNZHo+YYPbvig8OX/2pzEk+uac/O8lqY/n6FPp9vtdhsAaJpm2UJ/AACLhygAEKIAQIgCACEKAIQoABCiAECIAgCxYq4/uGXLlvn8jk/28uXL8max/5kWsz/++GOhPwEomsv/q+ymAECIAgAhCgCEKAAQogBAiAIAIQoAhCgAEKIAQIgCACEKAIQoABCd7lxeSGqaptPpzPe3ADCPPIgHQIkoABCiAECIAgAhCgCEKAAQogBAiAIAIQoAhCgAEKIAQIgCALFioT8A/p+LFy+WN8ePHy9vhoaGypsnT56UN7CYuSkAEKIAQIgCACEKAIQoABCiAECIAgAhCgCEKAAQogBAiAIAIQoAhCgAEF5JpWcGBwdb7U6cOFHe/P333+XNzp07yxuvpNJv3BQACFEAIEQBgBAFAEIUAAhRACBEAYAQBQBCFAAIUQAgRAGAEAUAotPtdrtz+sFOZ76/hc/IwMBAefP777+3Ouvnn38ub77//vvyZo6/Cv/jw4cP5Q0slLn8O+6mAECIAgAhCgCEKAAQogBAiAIAIQoAhCgAEKIAQIgCACEKAIQoABArFvoD+Dx999135c309HSrs65evVrezM7OtjoLljo3BQBCFAAIUQAgRAGAEAUAQhQACFEAIEQBgBAFAEIUAAhRACBEAYDwIB6tXLhwoby5efNmq7P++uuvVjugzk0BgBAFAEIUAAhRACBEAYAQBQBCFAAIUQAgRAGAEAUAQhQACFEAIDyIRzMwMFDerFq1qrx5/vx5eQP0lpsCACEKAIQoABCiAECIAgAhCgCEKAAQogBAiAIAIQoAhCgAEKIAQIgCAOGVVJr9+/f35JyRkZGenAO056YAQIgCACEKAIQoABCiAECIAgAhCgCEKAAQogBAiAIAIQoAhCgAEB7Eozl58mR5MzMzU95MTEyUN0BvuSkAEKIAQIgCACEKAIQoABCiAECIAgAhCgCEKAAQogBAiAIAIQoAhAfx+kyn0ylv1q5dW96Mjo6WN3yawcHB8mZoaOjf/5B/8Pbt2/Lm4cOHrc4aGRkpb7rdbquzliI3BQBCFAAIUQAgRAGAEAUAQhQACFEAIEQBgBAFAEIUAAhRACBEAYDwIF6f2bhxY3mzbdu28ubKlSvlTT9auXJleXP58uVWZ505c6a8+fPPP8ubqampnpxz6tSp8qZpmubw4cPlzf3791udtRS5KQAQogBAiAIAIQoAhCgAEKIAQIgCACEKAIQoABCiAECIAgAhCgCEKAAQXkmllYmJiYX+hH/dsmX1vyPdvn27vDl27Fh50zTtXhX96aefypuZmZnypo1Dhw612t28ebO82bFjR3kzOTlZ3vQDNwUAQhQACFEAIEQBgBAFAEIUAAhRACBEAYAQBQBCFAAIUQAgRAGA8CBen9m8eXNPzvn11197ck4vXb9+vbzZt29fTzZN0zSjo6PlTbfbbXVWL9y7d6/VbvXq1eXNmjVryhsP4gGw5IkCACEKAIQoABCiAECIAgAhCgCEKAAQogBAiAIAIQoAhCgAEB7E6zPr169f6E9YFDZs2FDeHDx4sLw5evRoeTM2Nlbe9KN379612r148aK82bNnT3kzPDxc3vQDNwUAQhQACFEAIEQBgBAFAEIUAAhRACBEAYAQBQBCFAAIUQAgRAGA8CBen3n//n1Pztm0aVN5Mzk5OQ9f8s++/fbb8qbNI3qPHz8ub+i9gYGBhf6Ez4abAgAhCgCEKAAQogBAiAIAIQoAhCgAEKIAQIgCACEKAIQoABCiAEB4EK/PPHr0qLx5/fp1eXPy5Mny5vTp0+VNW7/88kt5s2JF/ddh79695c39+/fLm37U5p930zTNl19+Wd68ffu21VlLkZsCACEKAIQoABCiAECIAgAhCgCEKAAQogBAiAIAIQoAhCgAEKIAQIgCAOGV1D4zNTVV3oyPj5c3hw8fLm/Onj1b3jRN08zOzpY3b968KW8+fvxY3ixfvry84b/avpq7YcOG8mZ0dLTVWUuRmwIAIQoAhCgAEKIAQIgCACEKAIQoABCiAECIAgAhCgCEKAAQogBAdLrdbndOP9jpzPe3sECGhobKmzt37pQ3N27cKG+apv3DaVW3bt0qbw4cOFDe/Pjjj+VN0zTN9PR0q13Vo0ePypvNmzeXN7dv3y5vmqZpvvnmm/JmbGys1Vn9Zi7/uXdTACBEAYAQBQBCFAAIUQAgRAGAEAUAQhQACFEAIEQBgBAFAEIUAAgP4tHK8PBweXPo0KFWZ127dq28+eGHH8qbycnJ8mb//v3lzbp168qbpmn3O7hy5cryZuvWreXN9u3by5tz586VN03TNL/99lurHR7EA6BIFAAIUQAgRAGAEAUAQhQACFEAIEQBgBAFAEIUAAhRACBEAYDwIB6tfPHFF+XNpUuXWp115syZ8mZ8fLy8uXv3bnnz6tWr8qatNg8K7t69u7wZHR0tb86fP1/ePHv2rLzh03gQD4ASUQAgRAGAEAUAQhQACFEAIEQBgBAFAEIUAAhRACBEAYAQBQDCg3gsert27Spvjhw5Ut58/fXX5c1XX31V3jx48KC8aZqmefr0aXnz8OHD8mZsbKy8+fjxY3lD73kQD4ASUQAgRAGAEAUAQhQACFEAIEQBgBAFAEIUAAhRACBEAYAQBQBCFAAIr6QCLBFeSQWgRBQACFEAIEQBgBAFAEIUAAhRACBEAYAQBQBCFAAIUQAgRAGAEAUAQhQACFEAIEQBgBAFAEIUAAhRACBEAYAQBQBCFAAIUQAgRAGAEAUAQhQACFEAIEQBgBAFAEIUAAhRACBEAYAQBQBCFAAIUQAgRAGAEAUAQhQACFEAIEQBgBAFAEIUAAhRACBEAYAQBQBCFAAIUQAgRAGAEAUAQhQACFEAIEQBgBAFAEIUAAhRACBEAYAQBQBCFAAIUQAgRAGAEAUAQhQACFEAIEQBgBAFAEIUAAhRACBEAYAQBQBCFAAIUQAgRAGAEAUAQhQACFEAIEQBgBAFAEIUAIgVc/3Bbrc7n98BwCLgpgBAiAIAIQoAhCgAEKIAQIgCACEKAIQoABCiAED8B/xAPADlqGzxAAAAAElFTkSuQmCC;" vertex="1" parent="1">
          <mxGeometry y="100" width="100" height="100" as="geometry" />
        </mxCell>
        <mxCell id="Ax1zpurAWLt4gDFZBOKB-5" value="" style="shape=image;verticalLabelPosition=bottom;labelBackgroundColor=default;verticalAlign=top;imageAspect=0;image=data:image/png,iVBORw0KGgoAAAANSUhEUgAAAYUAAAGFCAYAAAASI+9IAAAAOXRFWHRTb2Z0d2FyZQBNYXRwbG90bGliIHZlcnNpb24zLjcuMSwgaHR0cHM6Ly9tYXRwbG90bGliLm9yZy/bCgiHAAAACXBIWXMAAA9hAAAPYQGoP6dpAAAJPElEQVR4nO3cTYjOex/H8f/luTQ2FErKRlZYKAthViIpG6aEpVCKRHZ2YkEWSiiysLCzRE0jScpDlhZCJErJpDyF617c9am7Tt3z/Z8z1zjXvF7r+fT7J3Pe57fw63S73W4DAE3TTJnoDwDgzyEKAIQoABCiAECIAgAhCgCEKAAQogBATBvrDy5ZsmQ8v2NCvHz5srzpxz+HNl69ejXRnwAUjeXfKrspABCiAECIAgAhCgCEKAAQogBAiAIAIQoAhCgAEKIAQIgCACEKAESnO5YXkpqm6XQ64/0tAIwjD+IBUCIKAIQoABCiAECIAgAhCgCEKAAQogBAiAIAIQoAhCgAEKIAQEyb6A+A/+f48ePlze7du8uboaGh8ubRo0flDfzJ3BQACFEAIEQBgBAFAEIUAAhRACBEAYAQBQBCFAAIUQAgRAGAEAUAQhQACK+k0jODg4Otdnv27Clvvnz5Ut6sWrWqvPFKKv3GTQGAEAUAQhQACFEAIEQBgBAFAEIUAAhRACBEAYAQBQBCFAAIUQAgOt1utzumH+x0xvtb+BcZGBgob168eNHqrKtXr5Y3x44dK2/G+KvwP379+lXewEQZy99xNwUAQhQACFEAIEQBgBAFAEIUAAhRACBEAYAQBQBCFAAIUQAgRAGAmDbRH8C/0759+8qbb9++tTrr9OnT5c3Pnz9bnQWTnZsCACEKAIQoABCiAECIAgAhCgCEKAAQogBAiAIAIQoAhCgAEKIAQHgQj1aOHj1a3ly4cKHVWe/evWu1A+rcFAAIUQAgRAGAEAUAQhQACFEAIEQBgBAFAEIUAAhRACBEAYAQBQDCg3g0AwMD5c3MmTPLm2fPnpU3QG+5KQAQogBAiAIAIQoAhCgAEKIAQIgCACEKAIQoABCiAECIAgAhCgCEKAAQXkml2bhxY0/OuXnzZk/OAdpzUwAgRAGAEAUAQhQACFEAIEQBgBAFAEIUAAhRACBEAYAQBQBCFAAID+LR7N27t7z5/v17efPhw4fyBugtNwUAQhQACFEAIEQBgBAFAEIUAAhRACBEAYAQBQBCFAAIUQAgRAGA8CBen+l0OuXN3Llzy5vh4eHyhr9ncHCwvBkaGvrnP+QvfPr0qby5e/duq7Nu3rxZ3nS73VZnTUZuCgCEKAAQogBAiAIAIQoAhCgAEKIAQIgCACEKAIQoABCiAECIAgDhQbw+s3DhwvJm+fLl5c2pU6fKm340Y8aM8ubkyZOtzjp48GB58/r16/Lm8+fPPTln//795U3TNM22bdvKm9u3b7c6azJyUwAgRAGAEAUAQhQACFEAIEQBgBAFAEIUAAhRACBEAYAQBQBCFAAIUQAgvJJKKx8+fJjoT/jHTZlS/3+kS5culTe7du0qb5qm3auiV65cKW++f/9e3rSxdevWVrsLFy6UNytXrixvRkdHy5t+4KYAQIgCACEKAIQoABCiAECIAgAhCgCEKAAQogBAiAIAIQoAhCgAEB7E6zOLFy/uyTkPHz7syTm9dO7cufJmw4YNPdk0TdMMDw+XN91ut9VZvXDr1q1Wu1mzZpU3s2fPLm88iAfApCcKAIQoABCiAECIAgAhCgCEKAAQogBAiAIAIQoAhCgAEKIAQHgQr8/Mnz9/oj/hj7BgwYLyZsuWLeXNjh07ypuRkZHyph99/fq11e758+flzdq1a8ub69evlzf9wE0BgBAFAEIUAAhRACBEAYAQBQBCFAAIUQAgRAGAEAUAQhQACFEAIDyI12d+/PjRk3MWLVpU3oyOjo7Dl/y1nTt3ljdtHtG7f/9+eUPvDQwMTPQn/Gu4KQAQogBAiAIAIQoAhCgAEKIAQIgCACEKAIQoABCiAECIAgAhCgCEB/H6zL1798qb9+/flzd79+4tbw4cOFDetPXgwYPyZtq0+q/D+vXry5vbt2+XN/2ozZ930zTNnDlzyptPnz61OmsyclMAIEQBgBAFAEIUAAhRACBEAYAQBQBCFAAIUQAgRAGAEAUAQhQACFEAILyS2mc+f/5c3rx9+7a82bZtW3lz6NCh8qZpmubnz5/lzcePH8ub379/lzdTp04tb/ivtq/mLliwoLwZHh5uddZk5KYAQIgCACEKAIQoABCiAECIAgAhCgCEKAAQogBAiAIAIQoAhCgAEJ1ut9sd0w92OuP9LUyQoaGh8ubatWvlzfnz58ubpmn/cFrVxYsXy5vNmzeXN5cvXy5vmqZpvn371mpXde/evfJm8eLF5c2lS5fKm6Zpmk2bNpU3IyMjrc7qN2P5z72bAgAhCgCEKAAQogBAiAIAIQoAhCgAEKIAQIgCACEKAIQoABCiAEB4EI9Wrl+/Xt5s3bq11Vlnz54tb86cOVPejI6OljcbN24sb+bNm1feNE2738EZM2aUN0uXLi1vVqxYUd4cPny4vGmapnn8+HGrHR7EA6BIFAAIUQAgRAGAEAUAQhQACFEAIEQBgBAFAEIUAAhRACBEAYDwIB6tTJ8+vbw5ceJEq7MOHjxY3rx9+7a8uXHjRnnz5s2b8qatNg8KrlmzprwZHh4ub44cOVLePH36tLzh7/EgHgAlogBAiAIAIQoAhCgAEKIAQIgCACEKAIQoABCiAECIAgAhCgCEB/H4461evbq82b59e3mzbt268mbZsmXlzZ07d8qbpmmaJ0+elDd3794tb0ZGRsqb379/lzf0ngfxACgRBQBCFAAIUQAgRAGAEAUAQhQACFEAIEQBgBAFAEIUAAhRACBEAYDwSirAJOGVVABKRAGAEAUAQhQACFEAIEQBgBAFAEIUAAhRACBEAYAQBQBCFAAIUQAgRAGAEAUAQhQACFEAIEQBgBAFAEIUAAhRACBEAYAQBQBCFAAIUQAgRAGAEAUAQhQACFEAIEQBgBAFAEIUAAhRACBEAYAQBQBCFAAIUQAgRAGAEAUAQhQACFEAIEQBgBAFAEIUAAhRACBEAYAQBQBCFAAIUQAgRAGAEAUAQhQACFEAIEQBgBAFAEIUAAhRACBEAYAQBQBCFAAIUQAgRAGAEAUAQhQACFEAIEQBgBAFAEIUAAhRACBEAYAQBQBCFAAIUQAgRAGAEAUAQhQACFEAIEQBgJg21h/sdrvj+R0A/AHcFAAIUQAgRAGAEAUAQhQACFEAIEQBgBAFAEIUAIj/AGBAPAAdh7cyAAAAAElFTkSuQmCC;" vertex="1" parent="1">
          <mxGeometry x="100" y="100" width="100" height="100" as="geometry" />
        </mxCell>
        <mxCell id="Ax1zpurAWLt4gDFZBOKB-6" value="" style="shape=image;verticalLabelPosition=bottom;labelBackgroundColor=default;verticalAlign=top;imageAspect=0;image=data:image/png,iVBORw0KGgoAAAANSUhEUgAAAYUAAAGFCAYAAAASI+9IAAAAOXRFWHRTb2Z0d2FyZQBNYXRwbG90bGliIHZlcnNpb24zLjcuMSwgaHR0cHM6Ly9tYXRwbG90bGliLm9yZy/bCgiHAAAACXBIWXMAAA9hAAAPYQGoP6dpAAAJO0lEQVR4nO3cTYjOex/H8f/luTQ21KGkbGSFhbIQZiWSsmFKWAqlSGRnJxZkoYQiCws7S9Q0kqQ8ZGkhRKKUTMpTuO7FXZ+669Q93/85cw3XvF7r+fT7J3Pe57fw63S73W4DAE3TTJnoDwDg9yEKAIQoABCiAECIAgAhCgCEKAAQogBATBvrDy5evHg8v+OP8eLFi/KmH//sXr58OdGfABSN5d8quykAEKIAQIgCACEKAIQoABCiAECIAgAhCgCEKAAQogBAiAIAIQoARKc7lheSmqbpdDrj/S0AjCMP4gFQIgoAhCgAEKIAQIgCACEKAIQoABCiAECIAgAhCgCEKAAQogBATJvoD4D/59ixY+XNrl27ypuhoaHy5uHDh+UN/M7cFAAIUQAgRAGAEAUAQhQACFEAIEQBgBAFAEIUAAhRACBEAYAQBQBCFAAIr6TSM4ODg612u3fvLm8+f/5c3qxcubK88Uoq/cZNAYAQBQBCFAAIUQAgRAGAEAUAQhQACFEAIEQBgBAFAEIUAAhRACA63W63O6Yf7HTG+1v4gwwMDJQ3z58/b3XWlStXypujR4+WN2P8VfgfP3/+LG9goozl77ibAgAhCgCEKAAQogBAiAIAIQoAhCgAEKIAQIgCACEKAIQoABCiAEBMm+gP4M+0d+/e8ubr16+tzjp16lR58+PHj1ZnwWTnpgBAiAIAIQoAhCgAEKIAQIgCACEKAIQoABCiAECIAgAhCgCEKAAQHsSjlSNHjpQ358+fb3XW27dvW+2AOjcFAEIUAAhRACBEAYAQBQBCFAAIUQAgRAGAEAUAQhQACFEAIEQBgPAgHs3AwEB5M3PmzPLm6dOn5Q3QW24KAIQoABCiAECIAgAhCgCEKAAQogBAiAIAIQoAhCgAEKIAQIgCACEKAIRXUmk2bNjQk3Nu3LjRk3OA9twUAAhRACBEAYAQBQBCFAAIUQAgRAGAEAUAQhQACFEAIEQBgBAFAMKDeDR79uwpb759+1bevH//vrwBestNAYAQBQBCFAAIUQAgRAGAEAUAQhQACFEAIEQBgBAFAEIUAAhRACA8iNdnOp1OeTN37tzyZnh4uLzhnxkcHCxvhoaG/v0P+RsfP34sb+7cudPqrBs3bpQ33W631VmTkZsCACEKAIQoABCiAECIAgAhCgCEKAAQogBAiAIAIQoAhCgAEKIAQHgQr88sWLCgvFm2bFl5c/LkyfKmH82YMaO8OXHiRKuzDhw4UN68evWqvPn06VNPztm3b1950zRNs3Xr1vLm1q1brc6ajNwUAAhRACBEAYAQBQBCFAAIUQAgRAGAEAUAQhQACFEAIEQBgBAFAEIUAAivpNLK+/fvJ/oT/nVTptT/H+nixYvlzc6dO8ubpmn3qujly5fLm2/fvpU3bWzZsqXV7vz58+XNihUrypvR0dHyph+4KQAQogBAiAIAIQoAhCgAEKIAQIgCACEKAIQoABCiAECIAgAhCgCEB/H6zKJFi3pyzoMHD3pyTi+dPXu2vFm/fn1PNk3TNMPDw+VNt9ttdVYv3Lx5s9Vu1qxZ5c3s2bPLGw/iATDpiQIAIQoAhCgAEKIAQIgCACEKAIQoABCiAECIAgAhCgCEKAAQHsTrM3/99ddEf8JvYf78+eXN5s2by5vt27eXNyMjI+VNP/ry5Uur3bNnz8qbNWvWlDfXrl0rb/qBmwIAIQoAhCgAEKIAQIgCACEKAIQoABCiAECIAgAhCgCEKAAQogBAeBCvz3z//r0n5yxcuLC8GR0dHYcv+Xs7duwob9o8onfv3r3yht4bGBiY6E/4Y7gpABCiAECIAgAhCgCEKAAQogBAiAIAIQoAhCgAEKIAQIgCACEKAIQH8frM3bt3y5t3796VN3v27Clv9u/fX960df/+/fJm2rT6r8O6devKm1u3bpU3/ajNn3fTNM2cOXPKm48fP7Y6azJyUwAgRAGAEAUAQhQACFEAIEQBgBAFAEIUAAhRACBEAYAQBQBCFAAIUQAgvJLaZz59+lTevHnzprzZunVreXPw4MHypmma5sePH+XNhw8fyptfv36VN1OnTi1v+K+2r+bOnz+/vBkeHm511mTkpgBAiAIAIQoAhCgAEKIAQIgCACEKAIQoABCiAECIAgAhCgCEKAAQnW632x3TD3Y64/0tTJChoaHy5urVq+XNuXPnypumaf9wWtWFCxfKm02bNpU3ly5dKm+apmm+fv3aald19+7d8mbRokXlzcWLF8ubpmmajRs3ljcjIyOtzuo3Y/nPvZsCACEKAIQoABCiAECIAgAhCgCEKAAQogBAiAIAIQoAhCgAEKIAQHgQj1auXbtW3mzZsqXVWWfOnClvTp8+Xd6Mjo6WNxs2bChv5s2bV940TbvfwRkzZpQ3S5YsKW+WL19e3hw6dKi8aZqmefToUasdHsQDoEgUAAhRACBEAYAQBQBCFAAIUQAgRAGAEAUAQhQACFEAIEQBgPAgHq1Mnz69vDl+/Hirsw4cOFDevHnzpry5fv16efP69evypq02DwquXr26vBkeHi5vDh8+XN48efKkvOGf8SAeACWiAECIAgAhCgCEKAAQogBAiAIAIQoAhCgAEKIAQIgCACEKAIQH8fjtrVq1qrzZtm1bebN27dryZunSpeXN7du3y5umaZrHjx+XN3fu3ClvRkZGyptfv36VN/SeB/EAKBEFAEIUAAhRACBEAYAQBQBCFAAIUQAgRAGAEAUAQhQACFEAIEQBgPBKKsAk4ZVUAEpEAYAQBQBCFAAIUQAgRAGAEAUAQhQACFEAIEQBgBAFAEIUAAhRACBEAYAQBQBCFAAIUQAgRAGAEAUAQhQACFEAIEQBgBAFAEIUAAhRACBEAYAQBQBCFAAIUQAgRAGAEAUAQhQACFEAIEQBgBAFAEIUAAhRACBEAYAQBQBCFAAIUQAgRAGAEAUAQhQACFEAIEQBgBAFAEIUAAhRACBEAYAQBQBCFAAIUQAgRAGAEAUAQhQACFEAIEQBgBAFAEIUAAhRACBEAYAQBQBCFAAIUQAgRAGAEAUAQhQACFEAIEQBgBAFAEIUAAhRACBEAYAQBQBCFAAIUQAgRAGAmDbWH+x2u+P5HQD8BtwUAAhRACBEAYAQBQBCFAAIUQAgRAGAEAUAQhQAiP8AxDE8AP92GDEAAAAASUVORK5CYII=;" vertex="1" parent="1">
          <mxGeometry x="200" y="100" width="100" height="100" as="geometry" />
        </mxCell>
        <mxCell id="Ax1zpurAWLt4gDFZBOKB-7" value="" style="shape=image;verticalLabelPosition=bottom;labelBackgroundColor=default;verticalAlign=top;imageAspect=0;image=data:image/png,iVBORw0KGgoAAAANSUhEUgAAAYUAAAGFCAYAAAASI+9IAAAAOXRFWHRTb2Z0d2FyZQBNYXRwbG90bGliIHZlcnNpb24zLjcuMSwgaHR0cHM6Ly9tYXRwbG90bGliLm9yZy/bCgiHAAAACXBIWXMAAA9hAAAPYQGoP6dpAAAJO0lEQVR4nO3cTYjOex/H8f/luTQ2FErKRlZYKAthViIpG6aEpVCKRHZ2YkEWSiiysLCzRE0jScpDlhZCJErJpDyF617c9am7Tt3z/Z8z1zjXvF7r+fT7J3Pe57fw63S73W4DAE3TTJnoDwDgzyEKAIQoABCiAECIAgAhCgCEKAAQogBATBvrDy5ZsmQ8v6OvvXz5srz50/+8X716NdGfABSN5d8quykAEKIAQIgCACEKAIQoABCiAECIAgAhCgCEKAAQogBAiAIAIQoARKc7lheSmqbpdDrj/S0AjCMP4gFQIgoAhCgAEKIAQIgCACEKAIQoABCiAECIAgAhCgCEKAAQogBATJvoD4D/5/jx4+XN7t27y5uhoaHy5tGjR+UN/MncFAAIUQAgRAGAEAUAQhQACFEAIEQBgBAFAEIUAAhRACBEAYAQBQBCFAAIr6TSM4ODg612e/bsKW++fPlS3qxataq88Uoq/cZNAYAQBQBCFAAIUQAgRAGAEAUAQhQACFEAIEQBgBAFAEIUAAhRACA63W63O6Yf7HTG+1v4FxkYGChvXrx40eqsq1evljfHjh0rb8b4q/A/fv36Vd7ARBnL33E3BQBCFAAIUQAgRAGAEAUAQhQACFEAIEQBgBAFAEIUAAhRACBEAYCYNtEfwL/Tvn37yptv3761Ouv06dPlzc+fP1udBZOdmwIAIQoAhCgAEKIAQIgCACEKAIQoABCiAECIAgAhCgCEKAAQogBAeBCPVo4ePVreXLhwodVZ7969a7UD6twUAAhRACBEAYAQBQBCFAAIUQAgRAGAEAUAQhQACFEAIEQBgBAFAMKDeDQDAwPlzcyZM8ubZ8+elTdAb7kpABCiAECIAgAhCgCEKAAQogBAiAIAIQoAhCgAEKIAQIgCACEKAIQoABBeSaXZuHFjT865efNmT84B2nNTACBEAYAQBQBCFAAIUQAgRAGAEAUAQhQACFEAIEQBgBAFAEIUAAgP4tHs3bu3vPn+/Xt58+HDh/IG6C03BQBCFAAIUQAgRAGAEAUAQhQACFEAIEQBgBAFAEIUAAhRACBEAYDwIF6f6XQ65c3cuXPLm+Hh4fKGv2dwcLC8GRoa+uc/5C98+vSpvLl7926rs27evFnedLvdVmdNRm4KAIQoABCiAECIAgAhCgCEKAAQogBAiAIAIQoAhCgAEKIAQIgCAOFBvD6zcOHC8mb58uXlzalTp8qbfjRjxozy5uTJk63OOnjwYHnz+vXr8ubz5889OWf//v3lTdM0zbZt28qb27dvtzprMnJTACBEAYAQBQBCFAAIUQAgRAGAEAUAQhQACFEAIEQBgBAFAEIUAAhRACC8kkorHz58mOhP+MdNmVL/f6RLly6VN7t27Spvmqbdq6JXrlwpb75//17etLF169ZWuwsXLpQ3K1euLG9GR0fLm37gpgBAiAIAIQoAhCgAEKIAQIgCACEKAIQoABCiAECIAgAhCgCEKAAQHsTrM4sXL+7JOQ8fPuzJOb107ty58mbDhg092TRN0wwPD5c33W631Vm9cOvWrVa7WbNmlTezZ88ubzyIB8CkJwoAhCgAEKIAQIgCACEKAIQoABCiAECIAgAhCgCEKAAQogBAeBCvz8yfP3+iP+GPsGDBgvJmy5Yt5c2OHTvKm5GRkfKmH339+rXV7vnz5+XN2rVry5vr16+XN/3ATQGAEAUAQhQACFEAIEQBgBAFAEIUAAhRACBEAYAQBQBCFAAIUQAgPIjXZ378+NGTcxYtWlTejI6OjsOX/LWdO3eWN20e0bt//355Q+8NDAxM9Cf8a7gpABCiAECIAgAhCgCEKAAQogBAiAIAIQoAhCgAEKIAQIgCACEKAIQH8frMvXv3ypv379+XN3v37i1vDhw4UN609eDBg/Jm2rT6r8P69evLm9u3b5c3/ajNn3fTNM2cOXPKm0+fPrU6azJyUwAgRAGAEAUAQhQACFEAIEQBgBAFAEIUAAhRACBEAYAQBQBCFAAIUQAgvJLaZz5//lzevH37trzZtm1beXPo0KHypmma5ufPn+XNx48fy5vfv3+XN1OnTi1v+K+2r+YuWLCgvBkeHm511mTkpgBAiAIAIQoAhCgAEKIAQIgCACEKAIQoABCiAECIAgAhCgCEKAAQnW632x3TD3Y64/0tTJChoaHy5tq1a+XN+fPny5umaf9wWtXFixfLm82bN5c3ly9fLm+apmm+ffvWald179698mbx4sXlzaVLl8qbpmmaTZs2lTcjIyOtzuo3Y/nPvZsCACEKAIQoABCiAECIAgAhCgCEKAAQogBAiAIAIQoAhCgAEKIAQHgQj1auX79e3mzdurXVWWfPni1vzpw5U96Mjo6WNxs3bixv5s2bV940TbvfwRkzZpQ3S5cuLW9WrFhR3hw+fLi8aZqmefz4casdHsQDoEgUAAhRACBEAYAQBQBCFAAIUQAgRAGAEAUAQhQACFEAIEQBgPAgHq1Mnz69vDlx4kSrsw4ePFjevH37try5ceNGefPmzZvypq02DwquWbOmvBkeHi5vjhw5Ut48ffq0vOHv8SAeACWiAECIAgAhCgCEKAAQogBAiAIAIQoAhCgAEKIAQIgCACEKAIQH8fjjrV69urzZvn17ebNu3bryZtmyZeXNnTt3ypumaZonT56UN3fv3i1vRkZGypvfv3+XN/SeB/EAKBEFAEIUAAhRACBEAYAQBQBCFAAIUQAgRAGAEAUAQhQACFEAIEQBgPBKKsAk4ZVUAEpEAYAQBQBCFAAIUQAgRAGAEAUAQhQACFEAIEQBgBAFAEIUAAhRACBEAYAQBQBCFAAIUQAgRAGAEAUAQhQACFEAIEQBgBAFAEIUAAhRACBEAYAQBQBCFAAIUQAgRAGAEAUAQhQACFEAIEQBgBAFAEIUAAhRACBEAYAQBQBCFAAIUQAgRAGAEAUAQhQACFEAIEQBgBAFAEIUAAhRACBEAYAQBQBCFAAIUQAgRAGAEAUAQhQACFEAIEQBgBAFAEIUAAhRACBEAYAQBQBCFAAIUQAgRAGAEAUAQhQACFEAIEQBgBAFAEIUAAhRACBEAYAQBQBCFAAIUQAgRAGAmDbWH+x2u+P5HQD8AdwUAAhRACBEAYAQBQBCFAAIUQAgRAGAEAUAQhQAiP8AKDE8AHo4fY4AAAAASUVORK5CYII=;" vertex="1" parent="1">
          <mxGeometry y="200" width="100" height="100" as="geometry" />
        </mxCell>
        <mxCell id="Ax1zpurAWLt4gDFZBOKB-8" value="" style="shape=image;verticalLabelPosition=bottom;labelBackgroundColor=default;verticalAlign=top;imageAspect=0;image=data:image/png,iVBORw0KGgoAAAANSUhEUgAAAYUAAAGFCAYAAAASI+9IAAAAOXRFWHRTb2Z0d2FyZQBNYXRwbG90bGliIHZlcnNpb24zLjcuMSwgaHR0cHM6Ly9tYXRwbG90bGliLm9yZy/bCgiHAAAACXBIWXMAAA9hAAAPYQGoP6dpAAAJPUlEQVR4nO3cTYjOex/H8f/luTQ2FErKRlZYKAt5WImkbJgSlkIpEtnZiQWdhRKKLCzsLFHTSJLykKWFEIlSMilP4TqLuz5135265/s/5hqueb3W8+n3zzlz3n6L8+t0u91uAwBN00wa7w8A4PchCgCEKAAQogBAiAIAIQoAhCgAEKIAQEwZ7Q8uWrRoLL+D//H8+fNWu179c3rx4kVPzgF+ndH8v8puCgCEKAAQogBAiAIAIQoAhCgAEKIAQIgCACEKAIQoABCiAECIAgDR6Y7mhaSmaTqdzlh/CwBjyIN4AJSIAgAhCgCEKAAQogBAiAIAIQoAhCgAEKIAQIgCACEKAIQoABBTxvsD4P85duxYebNr167yZnBwsLx58OBBeQO/MzcFAEIUAAhRACBEAYAQBQBCFAAIUQAgRAGAEAUAQhQACFEAIEQBgBAFAMIrqfTMunXrWu12795d3nz69Km8WbFiRXnjlVT6jZsCACEKAIQoABCiAECIAgAhCgCEKAAQogBAiAIAIQoAhCgAEKIAQHS63W53VD/Y6Yz1t/AHGRgYKG+ePXvW6qzLly+XN0ePHi1vRvmr8F9+/PhR3sB4Gc2/424KAIQoABCiAECIAgAhCgCEKAAQogBAiAIAIQoAhCgAEKIAQIgCADFlvD+AP9PevXvLmy9fvrQ669SpU+XN9+/fW50FE52bAgAhCgCEKAAQogBAiAIAIQoAhCgAEKIAQIgCACEKAIQoABCiAEB4EI9Wjhw5Ut6cO3eu1Vlv3rxptQPq3BQACFEAIEQBgBAFAEIUAAhRACBEAYAQBQBCFAAIUQAgRAGAEAUAwoN4NAMDA+XN9OnTy5snT56UN0BvuSkAEKIAQIgCACEKAIQoABCiAECIAgAhCgCEKAAQogBAiAIAIQoAhCgAEF5JpdmwYUNPzrl+/XpPzgHac1MAIEQBgBAFAEIUAAhRACBEAYAQBQBCFAAIUQAgRAGAEAUAQhQACA/i0ezZs6e8+fr1a3nz7t278gboLTcFAEIUAAhRACBEAYAQBQBCFAAIUQAgRAGAEAUAQhQACFEAIEQBgPAgXp/pdDrlzezZs8uboaGh8oZ/Z926deXN4ODgr/+Qf/Dhw4fy5vbt263Oun79ennT7XZbnTURuSkAEKIAQIgCACEKAIQoABCiAECIAgAhCgCEKAAQogBAiAIAIQoAhAfx+sz8+fPLm6VLl5Y3J0+eLG/60bRp08qbEydOtDrrwIED5c3Lly/Lm48fP/bknH379pU3TdM0W7duLW9u3rzZ6qyJyE0BgBAFAEIUAAhRACBEAYAQBQBCFAAIUQAgRAGAEAUAQhQACFEAIEQBgPBKKq28e/duvD/hl5s0qf53pAsXLpQ3O3fuLG+apt2ropcuXSpvvn79Wt60sWXLlla7c+fOlTfLly8vb0ZGRsqbfuCmAECIAgAhCgCEKAAQogBAiAIAIQoAhCgAEKIAQIgCACEKAIQoABAexOszCxcu7Mk59+/f78k5vXTmzJnyZv369T3ZNE3TDA0NlTfdbrfVWb1w48aNVrsZM2aUNzNnzixvPIgHwIQnCgCEKAAQogBAiAIAIQoAhCgAEKIAQIgCACEKAIQoABCiAEB4EK/PzJ07d7w/4bcwb9688mbz5s3lzfbt28ub4eHh8qYfff78udXu6dOn5c3q1avLm6tXr5Y3/cBNAYAQBQBCFAAIUQAgRAGAEAUAQhQACFEAIEQBgBAFAEIUAAhRACA8iNdnvn371pNzFixYUN6MjIyMwZf8sx07dpQ3bR7Ru3v3bnlD7w0MDIz3J/wx3BQACFEAIEQBgBAFAEIUAAhRACBEAYAQBQBCFAAIUQAgRAGAEAUAwoN4febOnTvlzdu3b8ubPXv2lDf79+8vb9q6d+9eeTNlSv3XYe3ateXNzZs3y5t+1ObPu2maZtasWeXNhw8fWp01EbkpABCiAECIAgAhCgCEKAAQogBAiAIAIQoAhCgAEKIAQIgCACEKAIQoABBeSe0zHz9+LG9ev35d3mzdurW8OXjwYHnTNE3z/fv38ub9+/flzc+fP8ubyZMnlzf8R9tXc+fNm1feDA0NtTprInJTACBEAYAQBQBCFAAIUQAgRAGAEAUAQhQACFEAIEQBgBAFAEIUAIhOt9vtjuoHO52x/hbGyeDgYHlz5cqV8ubs2bPlTdO0fzit6vz58+XNpk2bypuLFy+WN03TNF++fGm1q7pz5055s3DhwvLmwoUL5U3TNM3GjRvLm+Hh4VZn9ZvR/OfeTQGAEAUAQhQACFEAIEQBgBAFAEIUAAhRACBEAYAQBQBCFAAIUQAgPIhHK1evXi1vtmzZ0uqsv/76q7w5ffp0eTMyMlLebNiwobyZM2dOedM07X4Hp02bVt4sXry4vFm2bFl5c+jQofKmaZrm4cOHrXZ4EA+AIlEAIEQBgBAFAEIUAAhRACBEAYAQBQBCFAAIUQAgRAGAEAUAwoN4tDJ16tTy5vjx463OOnDgQHnz+vXr8ubatWvlzatXr8qbtto8KLhq1aryZmhoqLw5fPhwefP48ePyhn/Hg3gAlIgCACEKAIQoABCiAECIAgAhCgCEKAAQogBAiAIAIQoAhCgAEB7E47e3cuXK8mbbtm3lzZo1a8qbJUuWlDe3bt0qb5qmaR49elTe3L59u7wZHh4ub37+/Fne0HsexAOgRBQACFEAIEQBgBAFAEIUAAhRACBEAYAQBQBCFAAIUQAgRAGAEAUAwiupABOEV1IBKBEFAEIUAAhRACBEAYAQBQBCFAAIUQAgRAGAEAUAQhQACFEAIEQBgBAFAEIUAAhRACBEAYAQBQBCFAAIUQAgRAGAEAUAQhQACFEAIEQBgBAFAEIUAAhRACBEAYAQBQBCFAAIUQAgRAGAEAUAQhQACFEAIEQBgBAFAEIUAAhRACBEAYAQBQBCFAAIUQAgRAGAEAUAQhQACFEAIEQBgBAFAEIUAAhRACBEAYAQBQBCFAAIUQAgRAGAEAUAQhQACFEAIEQBgBAFAEIUAAhRACBEAYAQBQBCFAAIUQAgRAGAEAUAQhQACFEAIEQBgBAFAEIUAAhRACBEAYAQBQBiymh/sNvtjuV3APAbcFMAIEQBgBAFAEIUAAhRACBEAYAQBQBCFAAIUQAg/gaKljwAs8sbxwAAAABJRU5ErkJggg==;" vertex="1" parent="1">
          <mxGeometry x="100" y="200" width="100" height="100" as="geometry" />
        </mxCell>
        <mxCell id="Ax1zpurAWLt4gDFZBOKB-9" value="" style="shape=image;verticalLabelPosition=bottom;labelBackgroundColor=default;verticalAlign=top;imageAspect=0;image=data:image/png,iVBORw0KGgoAAAANSUhEUgAAAYUAAAGFCAYAAAASI+9IAAAAOXRFWHRTb2Z0d2FyZQBNYXRwbG90bGliIHZlcnNpb24zLjcuMSwgaHR0cHM6Ly9tYXRwbG90bGliLm9yZy/bCgiHAAAACXBIWXMAAA9hAAAPYQGoP6dpAAAJOklEQVR4nO3cTYjOex/H8f/luTQ2FErKRlZYKAt5WImkbJgSlkIpEtnZiQVZKKHIwsLOEjWNJCkPWVoIkSglk/IUrntx16fuOnXP93/MNVzzeq3n0++fc+a8/Rbn1+l2u90GAJqmmTTeHwDAn0MUAAhRACBEAYAQBQBCFAAIUQAgRAGAmDLaH1y0aNFYfge/yYsXL8qbNv9sX758Wd4A42s0/6+ymwIAIQoAhCgAEKIAQIgCACEKAIQoABCiAECIAgAhCgCEKAAQogBAdLqjeSGpaZpOpzPW3wLAGPIgHgAlogBAiAIAIQoAhCgAEKIAQIgCACEKAIQoABCiAECIAgAhCgDElPH+APh/jh07Vt7s2rWrvBkcHCxvHj58WN7An8xNAYAQBQBCFAAIUQAgRAGAEAUAQhQACFEAIEQBgBAFAEIUAAhRACBEAYDwSio9s27dula73bt3lzefP38ub1asWFHeeCWVfuOmAECIAgAhCgCEKAAQogBAiAIAIQoAhCgAEKIAQIgCACEKAIQoABCdbrfbHdUPdjpj/S38RQYGBsqb58+ftzrrypUr5c3Ro0fLm1H+KvyPnz9/ljcwXkbz77ibAgAhCgCEKAAQogBAiAIAIQoAhCgAEKIAQIgCACEKAIQoABCiAEBMGe8P4O+0d+/e8ubr16+tzjp16lR58+PHj1ZnwUTnpgBAiAIAIQoAhCgAEKIAQIgCACEKAIQoABCiAECIAgAhCgCEKAAQHsSjlSNHjpQ358+fb3XW27dvW+2AOjcFAEIUAAhRACBEAYAQBQBCFAAIUQAgRAGAEAUAQhQACFEAIEQBgPAgHs3AwEB5M3369PLm6dOn5Q3QW24KAIQoABCiAECIAgAhCgCEKAAQogBAiAIAIQoAhCgAEKIAQIgCACEKAIRXUmk2bNjQk3Nu3LjRk3OA9twUAAhRACBEAYAQBQBCFAAIUQAgRAGAEAUAQhQACFEAIEQBgBAFAMKDeDR79uwpb759+1bevH//vrwBestNAYAQBQBCFAAIUQAgRAGAEAUAQhQACFEAIEQBgBAFAEIUAAhRACA8iNdnOp1OeTN79uzyZmhoqLzh31m3bl15Mzg4+Ps/5B98/PixvLlz506rs27cuFHedLvdVmdNRG4KAIQoABCiAECIAgAhCgCEKAAQogBAiAIAIQoAhCgAEKIAQIgCAOFBvD4zf/788mbp0qXlzcmTJ8ubfjRt2rTy5sSJE63OOnDgQHnz6tWr8ubTp089OWffvn3lTdM0zdatW8ubW7dutTprInJTACBEAYAQBQBCFAAIUQAgRAGAEAUAQhQACFEAIEQBgBAFAEIUAAhRACC8kkor79+/H+9P+O0mTar/HenixYvlzc6dO8ubpmn3qujly5fLm2/fvpU3bWzZsqXV7vz58+XN8uXLy5uRkZHyph+4KQAQogBAiAIAIQoAhCgAEKIAQIgCACEKAIQoABCiAECIAgAhCgCEB/H6zMKFC3tyzoMHD3pyTi+dPXu2vFm/fn1PNk3TNENDQ+VNt9ttdVYv3Lx5s9VuxowZ5c3MmTPLGw/iATDhiQIAIQoAhCgAEKIAQIgCACEKAIQoABCiAECIAgAhCgCEKAAQHsTrM3Pnzh3vT/gjzJs3r7zZvHlzebN9+/byZnh4uLzpR1++fGm1e/bsWXmzevXq8ubatWvlTT9wUwAgRAGAEAUAQhQACFEAIEQBgBAFAEIUAAhRACBEAYAQBQBCFAAID+L1me/fv/fknAULFpQ3IyMjY/Al/2zHjh3lTZtH9O7du1fe0HsDAwPj/Ql/DTcFAEIUAAhRACBEAYAQBQBCFAAIUQAgRAGAEAUAQhQACFEAIEQBgPAgXp+5e/duefPu3bvyZs+ePeXN/v37y5u27t+/X95MmVL/dVi7dm15c+vWrfKmH7X5826appk1a1Z58/Hjx1ZnTURuCgCEKAAQogBAiAIAIQoAhCgAEKIAQIgCACEKAIQoABCiAECIAgAhCgCEV1L7zKdPn8qbN2/elDdbt24tbw4ePFjeNE3T/Pjxo7z58OFDefPr16/yZvLkyeUN/9X21dx58+aVN0NDQ63OmojcFAAIUQAgRAGAEAUAQhQACFEAIEQBgBAFAEIUAAhRACBEAYAQBQCi0+12u6P6wU5nrL+FcTI4OFjeXL16tbw5d+5cedM07R9Oq7pw4UJ5s2nTpvLm0qVL5U3TNM3Xr19b7aru3r1b3ixcuLC8uXjxYnnTNE2zcePG8mZ4eLjVWf1mNP+5d1MAIEQBgBAFAEIUAAhRACBEAYAQBQBCFAAIUQAgRAGAEAUAQhQACA/i0cq1a9fKmy1btrQ668yZM+XN6dOny5uRkZHyZsOGDeXNnDlzypumafc7OG3atPJm8eLF5c2yZcvKm0OHDpU3TdM0jx49arXDg3gAFIkCACEKAIQoABCiAECIAgAhCgCEKAAQogBAiAIAIQoAhCgAEB7Eo5WpU6eWN8ePH2911oEDB8qbN2/elDfXr18vb16/fl3etNXmQcFVq1aVN0NDQ+XN4cOHy5snT56UN/w7HsQDoEQUAAhRACBEAYAQBQBCFAAIUQAgRAGAEAUAQhQACFEAIEQBgPAgHn+8lStXljfbtm0rb9asWVPeLFmypLy5fft2edM0TfP48ePy5s6dO+XN8PBwefPr16/yht7zIB4AJaIAQIgCACEKAIQoABCiAECIAgAhCgCEKAAQogBAiAIAIQoAhCgAEF5JBZggvJIKQIkoABCiAECIAgAhCgCEKAAQogBAiAIAIQoAhCgAEKIAQIgCACEKAIQoABCiAECIAgAhCgCEKAAQogBAiAIAIQoAhCgAEKIAQIgCACEKAIQoABCiAECIAgAhCgCEKAAQogBAiAIAIQoAhCgAEKIAQIgCACEKAIQoABCiAECIAgAhCgCEKAAQogBAiAIAIQoAhCgAEKIAQIgCACEKAIQoABCiAECIAgAhCgCEKAAQogBAiAIAIQoAhCgAEKIAQIgCACEKAIQoABCiAECIAgAhCgCEKAAQogBAiAIAIQoAhCgAEKIAQIgCACEKAIQoABCiAECIAgAhCgCEKAAQU0b7g91udyy/A4A/gJsCACEKAIQoABCiAECIAgAhCgCEKAAQogBAiAIA8R/kEzwAofTElAAAAABJRU5ErkJggg==;" vertex="1" parent="1">
          <mxGeometry x="200" y="200" width="100" height="100" as="geometry" />
        </mxCell>
        <mxCell id="Ax1zpurAWLt4gDFZBOKB-10" value="" style="shape=image;verticalLabelPosition=bottom;labelBackgroundColor=default;verticalAlign=top;imageAspect=0;image=data:image/png,iVBORw0KGgoAAAANSUhEUgAAAYUAAAGFCAYAAAASI+9IAAAAOXRFWHRTb2Z0d2FyZQBNYXRwbG90bGliIHZlcnNpb24zLjcuMSwgaHR0cHM6Ly9tYXRwbG90bGliLm9yZy/bCgiHAAAACXBIWXMAAA9hAAAPYQGoP6dpAAAJMklEQVR4nO3cTYjOex/H8f/luTQ2lFFSNrLCQlmIYyWSsmFKWAqlSGRnJxZkocQUWVjYWaKmkSTlIUsLUSRKyaQ8hete3PWpu07d8/2fM9dwzeu1nk+/f6cz3n4Lv0632+02ANA0zbTJ/gAAfh+iAECIAgAhCgCEKAAQogBAiAIAIQoAxIzx/uDSpUsn8juYRC9fvixvOp3OBHwJMJHG82+V3RQACFEAIEQBgBAFAEIUAAhRACBEAYAQBQBCFAAIUQAgRAGAEAUAotMdzwtJjQfQAP50HsQDoEQUAAhRACBEAYAQBQBCFAAIUQAgRAGAEAUAQhQACFEAIEQBgJgx2R8A/8+JEyfKmz179pQ3Q0ND5c2jR4/KG/iduSkAEKIAQIgCACEKAIQoABCiAECIAgAhCgCEKAAQogBAiAIAIQoAhCgAEF5JpWc2bNjQard3797y5vPnz+XN6tWryxuvpNJv3BQACFEAIEQBgBAFAEIUAAhRACBEAYAQBQBCFAAIUQAgRAGAEAUAotPtdrvj+sFOZ6K/hT/IwMBAefPixYtWZ129erW8OX78eHkzzl+F//Hz58/yBibLeP4fd1MAIEQBgBAFAEIUAAhRACBEAYAQBQBCFAAIUQAgRAGAEAUAQhQAiBmT/QH8mfbv31/efP36tdVZZ86cKW9+/PjR6iyY6twUAAhRACBEAYAQBQBCFAAIUQAgRAGAEAUAQhQACFEAIEQBgBAFAMKDeLRy7Nix8ubixYutznr79m2rHVDnpgBAiAIAIQoAhCgAEKIAQIgCACEKAIQoABCiAECIAgAhCgCEKAAQHsSjGRgYKG9mz55d3jx79qy8AXrLTQGAEAUAQhQACFEAIEQBgBAFAEIUAAhRACBEAYAQBQBCFAAIUQAgRAGA8EoqzaZNm3pyzs2bN3tyDtCemwIAIQoAhCgAEKIAQIgCACEKAIQoABCiAECIAgAhCgCEKAAQogBAeBCPZt++feXNt2/fypv379+XN0BvuSkAEKIAQIgCACEKAIQoABCiAECIAgAhCgCEKAAQogBAiAIAIQoAhAfx+kyn0ylv5s+fX96MjIyUN/wzGzZsKG+Ghob+/Q/5Gx8/fixv7t692+qsmzdvljfdbrfVWVORmwIAIQoAhCgAEKIAQIgCACEKAIQoABCiAECIAgAhCgCEKAAQogBAeBCvzyxatKi8WbFiRXlz+vTp8qYfzZo1q7w5depUq7MOHTpU3rx69aq8+fTpU0/OOXDgQHnTNE2zffv28ub27dutzpqK3BQACFEAIEQBgBAFAEIUAAhRACBEAYAQBQBCFAAIUQAgRAGAEAUAQhQACK+k0sr79+8n+xP+ddOm1f+ONDw8XN7s3r27vGmadq+KXrlypbz59u1bedPGtm3bWu0uXrxY3qxataq8GRsbK2/6gZsCACEKAIQoABCiAECIAgAhCgCEKAAQogBAiAIAIQoAhCgAEKIAQHgQr88sWbKkJ+c8fPiwJ+f00vnz58ubjRs39mTTNE0zMjJS3nS73VZn9cKtW7da7ebMmVPezJ07t7zxIB4AU54oABCiAECIAgAhCgCEKAAQogBAiAIAIQoAhCgAEKIAQIgCAOFBvD6zcOHCyf6E38Lg4GB5s3Xr1vJm586d5c3o6Gh504++fPnSavf8+fPyZt26deXN9evXy5t+4KYAQIgCACEKAIQoABCiAECIAgAhCgCEKAAQogBAiAIAIQoAhCgAEB7E6zPfv3/vyTmLFy8ub8bGxibgS/7erl27yps2j+jdv3+/vKH3BgYGJvsT/hhuCgCEKAAQogBAiAIAIQoAhCgAEKIAQIgCACEKAIQoABCiAECIAgDhQbw+c+/evfLm3bt35c2+ffvKm4MHD5Y3bT148KC8mTGj/uvw119/lTe3b98ub/pRm//eTdM08+bNK28+fvzY6qypyE0BgBAFAEIUAAhRACBEAYAQBQBCFAAIUQAgRAGAEAUAQhQACFEAIEQBgPBKap/59OlTefPmzZvyZvv27eXN4cOHy5umaZofP36UNx8+fChvfv36Vd5Mnz69vOG/2r6aOzg4WN6MjIy0OmsqclMAIEQBgBAFAEIUAAhRACBEAYAQBQBCFAAIUQAgRAGAEAUAQhQAiE632+2O6wc7nYn+FibJ0NBQeXPt2rXy5sKFC+VN07R/OK3q0qVL5c2WLVvKm8uXL5c3TdM0X79+bbWrunfvXnmzZMmS8mZ4eLi8aZqm2bx5c3kzOjra6qx+M54/7t0UAAhRACBEAYAQBQBCFAAIUQAgRAGAEAUAQhQACFEAIEQBgBAFAMKDeLRy/fr18mbbtm2tzjp37lx5c/bs2fJmbGysvNm0aVN5s2DBgvKmadr9Ds6aNau8WbZsWXmzcuXK8ubIkSPlTdM0zePHj1vt8CAeAEWiAECIAgAhCgCEKAAQogBAiAIAIQoAhCgAEKIAQIgCACEKAIQH8Whl5syZ5c3JkydbnXXo0KHy5s2bN+XNjRs3ypvXr1+XN221eVBw7dq15c3IyEh5c/To0fLm6dOn5Q3/jAfxACgRBQBCFAAIUQAgRAGAEAUAQhQACFEAIEQBgBAFAEIUAAhRACA8iMdvb82aNeXNjh07ypv169eXN8uXLy9v7ty5U940TdM8efKkvLl79255Mzo6Wt78+vWrvKH3PIgHQIkoABCiAECIAgAhCgCEKAAQogBAiAIAIQoAhCgAEKIAQIgCACEKAIRXUgGmCK+kAlAiCgCEKAAQogBAiAIAIQoAhCgAEKIAQIgCACEKAIQoABCiAECIAgAhCgCEKAAQogBAiAIAIQoAhCgAEKIAQIgCACEKAIQoABCiAECIAgAhCgCEKAAQogBAiAIAIQoAhCgAEKIAQIgCACEKAIQoABCiAECIAgAhCgCEKAAQogBAiAIAIQoAhCgAEKIAQIgCACEKAIQoABCiAECIAgAhCgCEKAAQogBAiAIAIQoAhCgAEKIAQIgCACEKAIQoABCiAECIAgAhCgCEKAAQogBAiAIAIQoAhCgAEKIAQIgCACEKAIQoABCiAECIAgAhCgCEKAAQogBAiAIAIQoAxIzx/mC3253I7wDgN+CmAECIAgAhCgCEKAAQogBAiAIAIQoAhCgAEKIAQPwH3BQ5ADFVVMAAAAAASUVORK5CYII=;" vertex="1" parent="1">
          <mxGeometry y="300" width="100" height="100" as="geometry" />
        </mxCell>
        <mxCell id="Ax1zpurAWLt4gDFZBOKB-11" value="&lt;b&gt;&lt;font color=&quot;#ff0000&quot; style=&quot;font-size: 20px;&quot;&gt;0&lt;/font&gt;&lt;/b&gt;" style="text;html=1;strokeColor=none;fillColor=none;align=center;verticalAlign=middle;whiteSpace=wrap;rounded=0;" vertex="1" parent="1">
          <mxGeometry y="10" width="20" height="20" as="geometry" />
        </mxCell>
        <mxCell id="Ax1zpurAWLt4gDFZBOKB-12" value="&lt;b&gt;&lt;font color=&quot;#ff0000&quot; style=&quot;font-size: 20px;&quot;&gt;1&lt;/font&gt;&lt;/b&gt;" style="text;html=1;strokeColor=none;fillColor=none;align=center;verticalAlign=middle;whiteSpace=wrap;rounded=0;" vertex="1" parent="1">
          <mxGeometry x="100" y="10" width="20" height="20" as="geometry" />
        </mxCell>
        <mxCell id="Ax1zpurAWLt4gDFZBOKB-13" value="&lt;b&gt;&lt;font color=&quot;#ff0000&quot; style=&quot;font-size: 20px;&quot;&gt;2&lt;/font&gt;&lt;/b&gt;" style="text;html=1;strokeColor=none;fillColor=none;align=center;verticalAlign=middle;whiteSpace=wrap;rounded=0;" vertex="1" parent="1">
          <mxGeometry x="200" y="10" width="20" height="20" as="geometry" />
        </mxCell>
        <mxCell id="Ax1zpurAWLt4gDFZBOKB-14" value="&lt;b&gt;&lt;font color=&quot;#ff0000&quot; style=&quot;font-size: 20px;&quot;&gt;3&lt;/font&gt;&lt;/b&gt;" style="text;html=1;strokeColor=none;fillColor=none;align=center;verticalAlign=middle;whiteSpace=wrap;rounded=0;" vertex="1" parent="1">
          <mxGeometry y="110" width="20" height="20" as="geometry" />
        </mxCell>
        <mxCell id="Ax1zpurAWLt4gDFZBOKB-15" value="&lt;b&gt;&lt;font color=&quot;#ff0000&quot; style=&quot;font-size: 20px;&quot;&gt;4&lt;/font&gt;&lt;/b&gt;" style="text;html=1;strokeColor=none;fillColor=none;align=center;verticalAlign=middle;whiteSpace=wrap;rounded=0;" vertex="1" parent="1">
          <mxGeometry x="100" y="110" width="20" height="20" as="geometry" />
        </mxCell>
        <mxCell id="Ax1zpurAWLt4gDFZBOKB-16" value="&lt;b&gt;&lt;font color=&quot;#ff0000&quot; style=&quot;font-size: 20px;&quot;&gt;5&lt;/font&gt;&lt;/b&gt;" style="text;html=1;strokeColor=none;fillColor=none;align=center;verticalAlign=middle;whiteSpace=wrap;rounded=0;" vertex="1" parent="1">
          <mxGeometry x="200" y="110" width="20" height="20" as="geometry" />
        </mxCell>
        <mxCell id="Ax1zpurAWLt4gDFZBOKB-17" value="&lt;b&gt;&lt;font color=&quot;#ff0000&quot; style=&quot;font-size: 20px;&quot;&gt;6&lt;/font&gt;&lt;/b&gt;" style="text;html=1;strokeColor=none;fillColor=none;align=center;verticalAlign=middle;whiteSpace=wrap;rounded=0;" vertex="1" parent="1">
          <mxGeometry y="210" width="20" height="20" as="geometry" />
        </mxCell>
        <mxCell id="Ax1zpurAWLt4gDFZBOKB-18" value="&lt;b&gt;&lt;font color=&quot;#ff0000&quot; style=&quot;font-size: 20px;&quot;&gt;9&lt;/font&gt;&lt;/b&gt;" style="text;html=1;strokeColor=none;fillColor=none;align=center;verticalAlign=middle;whiteSpace=wrap;rounded=0;" vertex="1" parent="1">
          <mxGeometry y="310" width="20" height="20" as="geometry" />
        </mxCell>
        <mxCell id="Ax1zpurAWLt4gDFZBOKB-19" value="&lt;b&gt;&lt;font color=&quot;#ff0000&quot; style=&quot;font-size: 20px;&quot;&gt;7&lt;/font&gt;&lt;/b&gt;" style="text;html=1;strokeColor=none;fillColor=none;align=center;verticalAlign=middle;whiteSpace=wrap;rounded=0;" vertex="1" parent="1">
          <mxGeometry x="100" y="210" width="20" height="20" as="geometry" />
        </mxCell>
        <mxCell id="Ax1zpurAWLt4gDFZBOKB-20" value="&lt;b&gt;&lt;font color=&quot;#ff0000&quot; style=&quot;font-size: 20px;&quot;&gt;8&lt;/font&gt;&lt;/b&gt;" style="text;html=1;strokeColor=none;fillColor=none;align=center;verticalAlign=middle;whiteSpace=wrap;rounded=0;" vertex="1" parent="1">
          <mxGeometry x="200" y="210" width="20" height="20" as="geometry" />
        </mxCell>
        <mxCell id="Ax1zpurAWLt4gDFZBOKB-21" value="" style="shape=image;verticalLabelPosition=bottom;labelBackgroundColor=default;verticalAlign=top;imageAspect=0;image=data:image/png,iVBORw0KGgoAAAANSUhEUgAAAYUAAAGFCAYAAAASI+9IAAAAOXRFWHRTb2Z0d2FyZQBNYXRwbG90bGliIHZlcnNpb24zLjcuMSwgaHR0cHM6Ly9tYXRwbG90bGliLm9yZy/bCgiHAAAACXBIWXMAAA9hAAAPYQGoP6dpAAAJLklEQVR4nO3cTYiO+x/H8ev2XBobCqUpG1lhoSzEsRJJ2TAlLIVSJLKzEwuyUEKRhYWdJVPTSJLykKWFJBKlZFKewn0W//rUv85ivtc5cw/3vF7r+fhdncx5n9/i/DrdbrfbAEDTNNMm+wMA+H2IAgAhCgCEKAAQogBAiAIAIQoAhCgAEDMm8g9funTpRP7xTKKXL19O9icAReP5f5XdFAAIUQAgRAGAEAUAQhQACFEAIEQBgBAFAEIUAAhRACBEAYAQBQBi3A/idTqdifwOAH4DbgoAhCgAEKIAQIgCACEKAIQoABCiAECIAgAhCgCEKAAQogBAiAIAMe4H8WCynDhxorzZs2dPeTM0NFTePHr0qLyB35mbAgAhCgCEKAAQogBAiAIAIQoAhCgAEKIAQIgCACEKAIQoABCiAECIAgDhlVR6ZsOGDa12e/fuLW8+f/5c3qxevbq88Uoq/cZNAYAQBQBCFAAIUQAgRAGAEAUAQhQACFEAIEQBgBAFAEIUAAhRACA63W63O64f7HQm+lv4gwwMDJQ3L168aHXWtWvXypvjx4+XN+P8Vfg/P3/+LG9gsozn77ibAgAhCgCEKAAQogBAiAIAIQoAhCgAEKIAQIgCACEKAIQoABCiAEDMmOwP4M+0f//+8ubr16+tzjpz5kx58+PHj1ZnwVTnpgBAiAIAIQoAhCgAEKIAQIgCACEKAIQoABCiAECIAgAhCgCEKAAQHsSjlWPHjpU3Fy9ebHXW27dvW+2AOjcFAEIUAAhRACBEAYAQBQBCFAAIUQAgRAGAEAUAQhQACFEAIEQBgPAgHs3AwEB5M3v27PLm2bNn5Q3QW24KAIQoABCiAECIAgAhCgCEKAAQogBAiAIAIQoAhCgAEKIAQIgCACEKAIRXUmk2bdrUk3Nu3brVk3OA9twUAAhRACBEAYAQBQBCFAAIUQAgRAGAEAUAQhQACFEAIEQBgBAFAMKDeDT79u0rb759+1bevH//vrwBestNAYAQBQBCFAAIUQAgRAGAEAUAQhQACFEAIEQBgBAFAEIUAAhRACA8iNdnOp1OeTN//vzyZmRkpLzh39mwYUN5MzQ09N9/yD/4+PFjeXP37t1WZ926dau86Xa7rc6aitwUAAhRACBEAYAQBQBCFAAIUQAgRAGAEAUAQhQACFEAIEQBgBAFAMKDeH1m8eLF5c2KFSvKm9OnT5c3/WjWrFnlzalTp1qddejQofLm1atX5c2nT596cs6BAwfKm6Zpmu3bt5c3w8PDrc6aitwUAAhRACBEAYAQBQBCFAAIUQAgRAGAEAUAQhQACFEAIEQBgBAFAEIUAAivpNLK+/fvJ/sT/nPTptX/G+ny5cvlze7du8ubpmn3qujVq1fLm2/fvpU3bWzbtq3V7uLFi+XNqlWrypuxsbHyph+4KQAQogBAiAIAIQoAhCgAEKIAQIgCACEKAIQoABCiAECIAgAhCgCEB/H6zODgYE/OefjwYU/O6aXz58+XNxs3buzJpmmaZmRkpLzpdrutzuqF27dvt9rNmTOnvJk7d25540E8AKY8UQAgRAGAEAUAQhQACFEAIEQBgBAFAEIUAAhRACBEAYAQBQDCg3h9ZuHChZP9Cb+FRYsWlTdbt24tb3bu3FnejI6Oljf96MuXL612z58/L2/WrVtX3ty4caO86QduCgCEKAAQogBAiAIAIQoAhCgAEKIAQIgCACEKAIQoABCiAECIAgDhQbw+8/37956cs2TJkvJmbGxsAr7kn+3atau8afOI3v3798sbem9gYGCyP+GP4aYAQIgCACEKAIQoABCiAECIAgAhCgCEKAAQogBAiAIAIQoAhCgAEB7E6zP37t0rb969e1fe7Nu3r7w5ePBgedPWgwcPypsZM+q/Dn/99Vd5Mzw8XN70ozb/vJumaebNm1fefPz4sdVZU5GbAgAhCgCEKAAQogBAiAIAIQoAhCgAEKIAQIgCACEKAIQoABCiAECIAgDhldQ+8+nTp/LmzZs35c327dvLm8OHD5c3TdM0P378KG8+fPhQ3vz69au8mT59ennD/7R9NXfRokXlzcjISKuzpiI3BQBCFAAIUQAgRAGAEAUAQhQACFEAIEQBgBAFAEIUAAhRACBEAYDodLvd7rh+sNOZ6G9hkgwNDZU3169fL28uXLhQ3jRN+4fTqi5dulTebNmypby5cuVKedM0TfP169dWu6p79+6VN4ODg+XN5cuXy5umaZrNmzeXN6Ojo63O6jfj+de9mwIAIQoAhCgAEKIAQIgCACEKAIQoABCiAECIAgAhCgCEKAAQogBAeBCPVm7cuFHebNu2rdVZ586dK2/Onj1b3oyNjZU3mzZtKm8WLFhQ3jRNu9/BWbNmlTfLli0rb1auXFneHDlypLxpmqZ5/Phxqx0exAOgSBQACFEAIEQBgBAFAEIUAAhRACBEAYAQBQBCFAAIUQAgRAGA8CAercycObO8OXnyZKuzDh06VN68efOmvLl582Z58/r16/KmrTYPCq5du7a8GRkZKW+OHj1a3jx9+rS84d/xIB4AJaIAQIgCACEKAIQoABCiAECIAgAhCgCEKAAQogBAiAIAIQoAhAfx+O2tWbOmvNmxY0d5s379+vJm+fLl5c2dO3fKm6ZpmidPnpQ3d+/eLW9GR0fLm1+/fpU39J4H8QAoEQUAQhQACFEAIEQBgBAFAEIUAAhRACBEAYAQBQBCFAAIUQAgRAGA8EoqwBThlVQASkQBgBAFAEIUAAhRACBEAYAQBQBCFAAIUQAgRAGAEAUAQhQACFEAIEQBgBAFAEIUAAhRACBEAYAQBQBCFAAIUQAgRAGAEAUAQhQACFEAIEQBgBAFAEIUAAhRACBEAYAQBQBCFAAIUQAgRAGAEAUAQhQACFEAIEQBgBAFAEIUAAhRACBEAYAQBQBCFAAIUQAgRAGAEAUAQhQACFEAIEQBgBAFAEIUAAhRACBEAYAQBQBCFAAIUQAgRAGAEAUAQhQACFEAIEQBgBAFAEIUAAhRACBEAYAQBQBCFAAIUQAgRAGAEAUAQhQACFEAIEQBgBAFAEIUAAhRACBEAYCYMd4f7Ha7E/kdAPwG3BQACFEAIEQBgBAFAEIUAAhRACBEAYAQBQBCFACIvwH0pjIKBtoW0QAAAABJRU5ErkJggg==;" vertex="1" parent="1">
          <mxGeometry x="580" width="100" height="100" as="geometry" />
        </mxCell>
        <mxCell id="Ax1zpurAWLt4gDFZBOKB-22" value="" style="shape=image;verticalLabelPosition=bottom;labelBackgroundColor=default;verticalAlign=top;imageAspect=0;image=data:image/png,iVBORw0KGgoAAAANSUhEUgAAAYUAAAGFCAYAAAASI+9IAAAAOXRFWHRTb2Z0d2FyZQBNYXRwbG90bGliIHZlcnNpb24zLjcuMSwgaHR0cHM6Ly9tYXRwbG90bGliLm9yZy/bCgiHAAAACXBIWXMAAA9hAAAPYQGoP6dpAAAJO0lEQVR4nO3cTYjOex/H8f/luTQ2FEpTNrLCQlnIw0okZcOUsBRKkcjOTizIQglFFhZ2lkxNI0nKQ5YWQiRKyaQ8hete3PWpu07d8/2f4xrnmtdrPZ/z+3c64+23OL9Ot9vtNgDQNM2Uif4AAP4cogBAiAIAIQoAhCgAEKIAQIgCACEKAMS08f7g4sWLy//wFy9elDdtzqH3Xr58OdGfABSN5/9VdlMAIEQBgBAFAEIUAAhRACBEAYAQBQBCFAAIUQAgRAGAEAUAQhQAiE53PC8kNU3T6XR+97cA8Bt5EA+AElEAIEQBgBAFAEIUAAhRACBEAYAQBQBCFAAIUQAgRAGAEAUAYtpEfwD8P8ePHy9vdu/eXd4MDQ2VNw8fPixv4E/mpgBAiAIAIQoAhCgAEKIAQIgCACEKAIQoABCiAECIAgAhCgCEKAAQogBAeCWVnlm/fn2r3Z49e8qbz58/lzcrV64sb7ySSr9xUwAgRAGAEAUAQhQACFEAIEQBgBAFAEIUAAhRACBEAYAQBQBCFACITrfb7Y7rBzud3/0t/IsMDAyUN8+fP2911tWrV8ubY8eOlTfj/FX4Hz9//ixvYKKM579xNwUAQhQACFEAIEQBgBAFAEIUAAhRACBEAYAQBQBCFAAIUQAgRAGAmDbRH8C/0759+8qbr1+/tjrr9OnT5c2PHz9anQWTnZsCACEKAIQoABCiAECIAgAhCgCEKAAQogBAiAIAIQoAhCgAEKIAQHgQj1aOHj1a3ly4cKHVWW/fvm21A+rcFAAIUQAgRAGAEAUAQhQACFEAIEQBgBAFAEIUAAhRACBEAYAQBQDCg3g0AwMD5c3MmTPLm6dPn5Y3QG+5KQAQogBAiAIAIQoAhCgAEKIAQIgCACEKAIQoABCiAECIAgAhCgCEKAAQXkml2bhxY0/OuXnzZk/OAdpzUwAgRAGAEAUAQhQACFEAIEQBgBAFAEIUAAhRACBEAYAQBQBCFAAID+LR7N27t7z59u1befP+/fvyBugtNwUAQhQACFEAIEQBgBAFAEIUAAhRACBEAYAQBQBCFAAIUQAgRAGA8CBen+l0OuXN3Llzy5uRkZHyhr9n/fr15c3Q0NA//yF/4ePHj+XNnTt3Wp118+bN8qbb7bY6azJyUwAgRAGAEAUAQhQACFEAIEQBgBAFAEIUAAhRACBEAYAQBQBCFAAID+L1mYULF5Y3y5YtK29OnTpV3vSjGTNmlDcnT55sddbBgwfLm1evXpU3nz596sk5+/fvL2+apmm2bdtW3gwPD7c6azJyUwAgRAGAEAUAQhQACFEAIEQBgBAFAEIUAAhRACBEAYAQBQBCFAAIUQAgvJJKK+/fv5/oT/jHTZlS/zvSpUuXyptdu3aVN03T7lXRK1eulDffvn0rb9rYunVrq92FCxfKmxUrVpQ3Y2Nj5U0/cFMAIEQBgBAFAEIUAAhRACBEAYAQBQBCFAAIUQAgRAGAEAUAQhQACA/i9ZnBwcGenPPgwYOenNNL586dK282bNjQk03TNM3IyEh50+12W53VC7du3Wq1mzVrVnkze/bs8saDeABMeqIAQIgCACEKAIQoABCiAECIAgAhCgCEKAAQogBAiAIAIQoAhAfx+sz8+fMn+hP+CAsWLChvtmzZUt7s2LGjvBkdHS1v+tGXL19a7Z49e1berFmzpry5fv16edMP3BQACFEAIEQBgBAFAEIUAAhRACBEAYAQBQBCFAAIUQAgRAGAEAUAwoN4feb79+89OWfRokXlzdjY2G/4kr+2c+fO8qbNI3r37t0rb+i9gYGBif6Efw03BQBCFAAIUQAgRAGAEAUAQhQACFEAIEQBgBAFAEIUAAhRACBEAYDwIF6fuXv3bnnz7t278mbv3r3lzYEDB8qbtu7fv1/eTJtW/3VYt25deTM8PFze9KM2/76bpmnmzJlT3nz8+LHVWZORmwIAIQoAhCgAEKIAQIgCACEKAIQoABCiAECIAgAhCgCEKAAQogBAiAIA4ZXUPvPp06fy5s2bN+XNtm3byptDhw6VN03TND9+/ChvPnz4UN78+vWrvJk6dWp5w3+1fTV3wYIF5c3IyEirsyYjNwUAQhQACFEAIEQBgBAFAEIUAAhRACBEAYAQBQBCFAAIUQAgRAGA6HS73e64frDT+d3fwgQZGhoqb65du1benD9/vrxpmvYPp1VdvHixvNm8eXN5c/ny5fKmaZrm69evrXZVd+/eLW8GBwfLm0uXLpU3TdM0mzZtKm9GR0dbndVvxvPHvZsCACEKAIQoABCiAECIAgAhCgCEKAAQogBAiAIAIQoAhCgAEKIAQHgQj1auX79e3mzdurXVWWfPni1vzpw5U96MjY2VNxs3bixv5s2bV940TbvfwRkzZpQ3S5YsKW+WL19e3hw+fLi8aZqmefToUasdHsQDoEgUAAhRACBEAYAQBQBCFAAIUQAgRAGAEAUAQhQACFEAIEQBgPAgHq1Mnz69vDlx4kSrsw4ePFjevHnzpry5ceNGefP69evypq02DwquXr26vBkZGSlvjhw5Ut48efKkvOHv8SAeACWiAECIAgAhCgCEKAAQogBAiAIAIQoAhCgAEKIAQIgCACEKAIQH8fjjrVq1qrzZvn17ebN27dryZunSpeXN7du3y5umaZrHjx+XN3fu3ClvRkdHy5tfv36VN/SeB/EAKBEFAEIUAAhRACBEAYAQBQBCFAAIUQAgRAGAEAUAQhQACFEAIEQBgPBKKsAk4ZVUAEpEAYAQBQBCFAAIUQAgRAGAEAUAQhQACFEAIEQBgBAFAEIUAAhRACBEAYAQBQBCFAAIUQAgRAGAEAUAQhQACFEAIEQBgBAFAEIUAAhRACBEAYAQBQBCFAAIUQAgRAGAEAUAQhQACFEAIEQBgBAFAEIUAAhRACBEAYAQBQBCFAAIUQAgRAGAEAUAQhQACFEAIEQBgBAFAEIUAAhRACBEAYAQBQBCFAAIUQAgRAGAEAUAQhQACFEAIEQBgBAFAEIUAAhRACBEAYAQBQBCFAAIUQAgRAGAEAUAQhQACFEAIEQBgBAFAEIUAAhRACBEAYAQBQBCFAAIUQAgRAGAmDbeH+x2u7/zOwD4A7gpABCiAECIAgAhCgCEKAAQogBAiAIAIQoAhCgAEP8BQF48AJaetWYAAAAASUVORK5CYII=;" vertex="1" parent="1">
          <mxGeometry x="680" width="100" height="100" as="geometry" />
        </mxCell>
        <mxCell id="Ax1zpurAWLt4gDFZBOKB-23" value="" style="shape=image;verticalLabelPosition=bottom;labelBackgroundColor=default;verticalAlign=top;imageAspect=0;image=data:image/png,iVBORw0KGgoAAAANSUhEUgAAAYUAAAGFCAYAAAASI+9IAAAAOXRFWHRTb2Z0d2FyZQBNYXRwbG90bGliIHZlcnNpb24zLjcuMSwgaHR0cHM6Ly9tYXRwbG90bGliLm9yZy/bCgiHAAAACXBIWXMAAA9hAAAPYQGoP6dpAAAJOklEQVR4nO3cTYjO6x/H8d/tuTQ2FErKRlZYKAt5WImkbJgSlkIpEtnZiQVZKKHIwsLOEjWNJCkPWVoIkSglk/IU7rM49al/nfrP93fO3MM9r9d6Pl2/Tme8XQtXp9vtdhsAaJpm0nh/AAC/D1EAIEQBgBAFAEIUAAhRACBEAYAQBQBiymh/cNGiRWP5HfHixYtWu159H397+fLleH8CUDSaf6vspgBAiAIAIQoAhCgAEKIAQIgCACEKAIQoABCiAECIAgAhCgCEKAAQne5oXkhqmqbT6Yz1twAwhjyIB0CJKAAQogBAiAIAIQoAhCgAEKIAQIgCACEKAIQoABCiAECIAgAxZbw/AP6fY8eOlTe7du0qbwYHB8ubhw8fljfwO3NTACBEAYAQBQBCFAAIUQAgRAGAEAUAQhQACFEAIEQBgBAFAEIUAAhRACC8kkrPrFu3rtVu9+7d5c3nz5/LmxUrVpQ3Xkml37gpABCiAECIAgAhCgCEKAAQogBAiAIAIQoAhCgAEKIAQIgCACEKAESn2+12R/WDnc5Yfwt/kIGBgfLm+fPnrc66cuVKeXP06NHyZpS/Cv/j58+f5Q2Ml9H8P+6mAECIAgAhCgCEKAAQogBAiAIAIQoAhCgAEKIAQIgCACEKAIQoABBTxvsD+DPt3bu3vPn69Wurs06dOlXe/Pjxo9VZMNG5KQAQogBAiAIAIQoAhCgAEKIAQIgCACEKAIQoABCiAECIAgAhCgCEB/Fo5ciRI+XN+fPnW5319u3bVjugzk0BgBAFAEIUAAhRACBEAYAQBQBCFAAIUQAgRAGAEAUAQhQACFEAIDyIRzMwMFDeTJ8+vbx5+vRpeQP0lpsCACEKAIQoABCiAECIAgAhCgCEKAAQogBAiAIAIQoAhCgAEKIAQIgCAOGVVJoNGzb05JwbN2705BygPTcFAEIUAAhRACBEAYAQBQBCFAAIUQAgRAGAEAUAQhQACFEAIEQBgPAgHs2ePXvKm2/fvpU379+/L2+A3nJTACBEAYAQBQBCFAAIUQAgRAGAEAUAQhQACFEAIEQBgBAFAEIUAAgP4vWZTqdT3syePbu8GRoaKm/4d9atW1feDA4O/vcf8g8+fvxY3ty5c6fVWTdu3Chvut1uq7MmIjcFAEIUAAhRACBEAYAQBQBCFAAIUQAgRAGAEAUAQhQACFEAIEQBgPAgXp+ZP39+ebN06dLy5uTJk+VNP5o2bVp5c+LEiVZnHThwoLx59epVefPp06eenLNv377ypmmaZuvWreXNrVu3Wp01EbkpABCiAECIAgAhCgCEKAAQogBAiAIAIQoAhCgAEKIAQIgCACEKAIQoABBeSaWV9+/fj/cn/OcmTar/HenixYvlzc6dO8ubpmn3qujly5fLm2/fvpU3bWzZsqXV7vz58+XN8uXLy5uRkZHyph+4KQAQogBAiAIAIQoAhCgAEKIAQIgCACEKAIQoABCiAECIAgAhCgCEB/H6zMKFC3tyzoMHD3pyTi+dPXu2vFm/fn1PNk3TNENDQ+VNt9ttdVYv3Lx5s9VuxowZ5c3MmTPLGw/iATDhiQIAIQoAhCgAEKIAQIgCACEKAIQoABCiAECIAgAhCgCEKAAQHsTrM3Pnzh3vT/gtzJs3r7zZvHlzebN9+/byZnh4uLzpR1++fGm1e/bsWXmzevXq8ubatWvlTT9wUwAgRAGAEAUAQhQACFEAIEQBgBAFAEIUAAhRACBEAYAQBQBCFAAID+L1me/fv/fknAULFpQ3IyMjY/Al/2zHjh3lTZtH9O7du1fe0HsDAwPj/Ql/DDcFAEIUAAhRACBEAYAQBQBCFAAIUQAgRAGAEAUAQhQACFEAIEQBgPAgXp+5e/duefPu3bvyZs+ePeXN/v37y5u27t+/X95MmVL/dVi7dm15c+vWrfKmH7X57900TTNr1qzy5uPHj63OmojcFAAIUQAgRAGAEAUAQhQACFEAIEQBgBAFAEIUAAhRACBEAYAQBQBCFAAIr6T2mU+fPpU3b968KW+2bt1a3hw8eLC8aZqm+fHjR3nz4cOH8ubXr1/lzeTJk8sb/tb21dx58+aVN0NDQ63OmojcFAAIUQAgRAGAEAUAQhQACFEAIEQBgBAFAEIUAAhRACBEAYAQBQCi0+12u6P6wU5nrL+FcTI4OFjeXL16tbw5d+5cedM07R9Oq7pw4UJ5s2nTpvLm0qVL5U3TNM3Xr19b7aru3r1b3ixcuLC8uXjxYnnTNE2zcePG8mZ4eLjVWf1mNH/cuykAEKIAQIgCACEKAIQoABCiAECIAgAhCgCEKAAQogBAiAIAIQoAhAfxaOXatWvlzZYtW1qddebMmfLm9OnT5c3IyEh5s2HDhvJmzpw55U3TtPsdnDZtWnmzePHi8mbZsmXlzaFDh8qbpmmaR48etdrhQTwAikQBgBAFAEIUAAhRACBEAYAQBQBCFAAIUQAgRAGAEAUAQhQACA/i0crUqVPLm+PHj7c668CBA+XNmzdvypvr16+XN69fvy5v2mrzoOCqVavKm6GhofLm8OHD5c2TJ0/KG/4dD+IBUCIKAIQoABCiAECIAgAhCgCEKAAQogBAiAIAIQoAhCgAEKIAQHgQj9/eypUry5tt27aVN2vWrClvlixZUt7cvn27vGmapnn8+HF5c+fOnfJmeHi4vPn161d5Q+95EA+AElEAIEQBgBAFAEIUAAhRACBEAYAQBQBCFAAIUQAgRAGAEAUAQhQACK+kAkwQXkkFoEQUAAhRACBEAYAQBQBCFAAIUQAgRAGAEAUAQhQACFEAIEQBgBAFAEIUAAhRACBEAYAQBQBCFAAIUQAgRAGAEAUAQhQACFEAIEQBgBAFAEIUAAhRACBEAYAQBQBCFAAIUQAgRAGAEAUAQhQACFEAIEQBgBAFAEIUAAhRACBEAYAQBQBCFAAIUQAgRAGAEAUAQhQACFEAIEQBgBAFAEIUAAhRACBEAYAQBQBCFAAIUQAgRAGAEAUAQhQACFEAIEQBgBAFAEIUAAhRACBEAYAQBQBCFAAIUQAgRAGAEAUAQhQACFEAIEQBgBAFAEIUAAhRACBEAYAQBQBCFACIKaP9wW63O5bfAcBvwE0BgBAFAEIUAAhRACBEAYAQBQBCFAAIUQAgRAGA+AuiwzwAt73fPwAAAABJRU5ErkJggg==;" vertex="1" parent="1">
          <mxGeometry x="780" width="100" height="100" as="geometry" />
        </mxCell>
        <mxCell id="Ax1zpurAWLt4gDFZBOKB-24" value="" style="shape=image;verticalLabelPosition=bottom;labelBackgroundColor=default;verticalAlign=top;imageAspect=0;image=data:image/png,iVBORw0KGgoAAAANSUhEUgAAAYUAAAGFCAYAAAASI+9IAAAAOXRFWHRTb2Z0d2FyZQBNYXRwbG90bGliIHZlcnNpb24zLjcuMSwgaHR0cHM6Ly9tYXRwbG90bGliLm9yZy/bCgiHAAAACXBIWXMAAA9hAAAPYQGoP6dpAAAJRUlEQVR4nO3cMWiVZx/G4feoVUHSRUEFEVykkzoIDmLNJBYRXDQg1VGsICiidHMTHSwOgqjQ0sEhm2MUQkRECrXi6CC1VEKFgBgCNZHo+YYPbvig8OX/2pzEk+uac/O8lqY/n6FPp9vtdhsAaJpm2UJ/AACLhygAEKIAQIgCACEKAIQoABCiAECIAgCxYq4/uGXLlvn8jk/28uXL8max/5kWsz/++GOhPwEomsv/q+ymAECIAgAhCgCEKAAQogBAiAIAIQoAhCgAEKIAQIgCACEKAIQoABCd7lxeSGqaptPpzPe3ADCPPIgHQIkoABCiAECIAgAhCgCEKAAQogBAiAIAIQoAhCgAEKIAQIgCALFioT8A/p+LFy+WN8ePHy9vhoaGypsnT56UN7CYuSkAEKIAQIgCACEKAIQoABCiAECIAgAhCgCEKAAQogBAiAIAIQoAhCgAEF5JpWcGBwdb7U6cOFHe/P333+XNzp07yxuvpNJv3BQACFEAIEQBgBAFAEIUAAhRACBEAYAQBQBCFAAIUQAgRAGAEAUAotPtdrtz+sFOZ76/hc/IwMBAefP777+3Ouvnn38ub77//vvyZo6/Cv/jw4cP5Q0slLn8O+6mAECIAgAhCgCEKAAQogBAiAIAIQoAhCgAEKIAQIgCACEKAIQoABArFvoD+Dx999135c309HSrs65evVrezM7OtjoLljo3BQBCFAAIUQAgRAGAEAUAQhQACFEAIEQBgBAFAEIUAAhRACBEAYDwIB6tXLhwoby5efNmq7P++uuvVjugzk0BgBAFAEIUAAhRACBEAYAQBQBCFAAIUQAgRAGAEAUAQhQACFEAIDyIRzMwMFDerFq1qrx5/vx5eQP0lpsCACEKAIQoABCiAECIAgAhCgCEKAAQogBAiAIAIQoAhCgAEKIAQIgCAOGVVJr9+/f35JyRkZGenAO056YAQIgCACEKAIQoABCiAECIAgAhCgCEKAAQogBAiAIAIQoAhCgAEB7Eozl58mR5MzMzU95MTEyUN0BvuSkAEKIAQIgCACEKAIQoABCiAECIAgAhCgCEKAAQogBAiAIAIQoAhAfx+kyn0ylv1q5dW96Mjo6WN3yawcHB8mZoaOjf/5B/8Pbt2/Lm4cOHrc4aGRkpb7rdbquzliI3BQBCFAAIUQAgRAGAEAUAQhQACFEAIEQBgBAFAEIUAAhRACBEAYDwIF6f2bhxY3mzbdu28ubKlSvlTT9auXJleXP58uVWZ505c6a8+fPPP8ubqampnpxz6tSp8qZpmubw4cPlzf3791udtRS5KQAQogBAiAIAIQoAhCgAEKIAQIgCACEKAIQoABCiAECIAgAhCgCEKAAQXkmllYmJiYX+hH/dsmX1vyPdvn27vDl27Fh50zTtXhX96aefypuZmZnypo1Dhw612t28ebO82bFjR3kzOTlZ3vQDNwUAQhQACFEAIEQBgBAFAEIUAAhRACBEAYAQBQBCFAAIUQAgRAGA8CBen9m8eXNPzvn11197ck4vXb9+vbzZt29fTzZN0zSjo6PlTbfbbXVWL9y7d6/VbvXq1eXNmjVryhsP4gGw5IkCACEKAIQoABCiAECIAgAhCgCEKAAQogBAiAIAIQoAhCgAEB7E6zPr169f6E9YFDZs2FDeHDx4sLw5evRoeTM2Nlbe9KN379612r148aK82bNnT3kzPDxc3vQDNwUAQhQACFEAIEQBgBAFAEIUAAhRACBEAYAQBQBCFAAIUQAgRAGA8CBen3n//n1Pztm0aVN5Mzk5OQ9f8s++/fbb8qbNI3qPHz8ub+i9gYGBhf6Ez4abAgAhCgCEKAAQogBAiAIAIQoAhCgAEKIAQIgCACEKAIQoABCiAEB4EK/PPHr0qLx5/fp1eXPy5Mny5vTp0+VNW7/88kt5s2JF/ddh79695c39+/fLm37U5p930zTNl19+Wd68ffu21VlLkZsCACEKAIQoABCiAECIAgAhCgCEKAAQogBAiAIAIQoAhCgAEKIAQIgCAOGV1D4zNTVV3oyPj5c3hw8fLm/Onj1b3jRN08zOzpY3b968KW8+fvxY3ixfvry84b/avpq7YcOG8mZ0dLTVWUuRmwIAIQoAhCgAEKIAQIgCACEKAIQoABCiAECIAgAhCgCEKAAQogBAdLrdbndOP9jpzPe3sECGhobKmzt37pQ3N27cKG+apv3DaVW3bt0qbw4cOFDe/Pjjj+VN0zTN9PR0q13Vo0ePypvNmzeXN7dv3y5vmqZpvvnmm/JmbGys1Vn9Zi7/uXdTACBEAYAQBQBCFAAIUQAgRAGAEAUAQhQACFEAIEQBgBAFAEIUAAgP4tHK8PBweXPo0KFWZ127dq28+eGHH8qbycnJ8mb//v3lzbp168qbpmn3O7hy5cryZuvWreXN9u3by5tz586VN03TNL/99lurHR7EA6BIFAAIUQAgRAGAEAUAQhQACFEAIEQBgBAFAEIUAAhRACBEAYDwIB6tfPHFF+XNpUuXWp115syZ8mZ8fLy8uXv3bnnz6tWr8qatNg8K7t69u7wZHR0tb86fP1/ePHv2rLzh03gQD4ASUQAgRAGAEAUAQhQACFEAIEQBgBAFAEIUAAhRACBEAYAQBQDCg3gsert27Spvjhw5Ut58/fXX5c1XX31V3jx48KC8aZqmefr0aXnz8OHD8mZsbKy8+fjxY3lD73kQD4ASUQAgRAGAEAUAQhQACFEAIEQBgBAFAEIUAAhRACBEAYAQBQBCFAAIr6QCLBFeSQWgRBQACFEAIEQBgBAFAEIUAAhRACBEAYAQBQBCFAAIUQAgRAGAEAUAQhQACFEAIEQBgBAFAEIUAAhRACBEAYAQBQBCFAAIUQAgRAGAEAUAQhQACFEAIEQBgBAFAEIUAAhRACBEAYAQBQBCFAAIUQAgRAGAEAUAQhQACFEAIEQBgBAFAEIUAAhRACBEAYAQBQBCFAAIUQAgRAGAEAUAQhQACFEAIEQBgBAFAEIUAAhRACBEAYAQBQBCFAAIUQAgRAGAEAUAQhQACFEAIEQBgBAFAEIUAAhRACBEAYAQBQBCFAAIUQAgRAGAEAUAQhQACFEAIEQBgBAFAEIUAIgVc/3Bbrc7n98BwCLgpgBAiAIAIQoAhCgAEKIAQIgCACEKAIQoABCiAED8B/xAPADlqGzxAAAAAElFTkSuQmCC;" vertex="1" parent="1">
          <mxGeometry x="580" y="100" width="100" height="100" as="geometry" />
        </mxCell>
        <mxCell id="Ax1zpurAWLt4gDFZBOKB-25" value="" style="shape=image;verticalLabelPosition=bottom;labelBackgroundColor=default;verticalAlign=top;imageAspect=0;image=data:image/png,iVBORw0KGgoAAAANSUhEUgAAAYUAAAGFCAYAAAASI+9IAAAAOXRFWHRTb2Z0d2FyZQBNYXRwbG90bGliIHZlcnNpb24zLjcuMSwgaHR0cHM6Ly9tYXRwbG90bGliLm9yZy/bCgiHAAAACXBIWXMAAA9hAAAPYQGoP6dpAAAJPElEQVR4nO3cTYjOex/H8f/luTQ2FErKRlZYKAthViIpG6aEpVCKRHZ2YkEWSiiysLCzRE0jScpDlhZCJErJpDyF617c9am7Tt3z/Z8z1zjXvF7r+fT7J3Pe57fw63S73W4DAE3TTJnoDwDgzyEKAIQoABCiAECIAgAhCgCEKAAQogBATBvrDy5ZsmQ8v2NCvHz5srzpxz+HNl69ejXRnwAUjeXfKrspABCiAECIAgAhCgCEKAAQogBAiAIAIQoAhCgAEKIAQIgCACEKAESnO5YXkpqm6XQ64/0tAIwjD+IBUCIKAIQoABCiAECIAgAhCgCEKAAQogBAiAIAIQoAhCgAEKIAQEyb6A+A/+f48ePlze7du8uboaGh8ubRo0flDfzJ3BQACFEAIEQBgBAFAEIUAAhRACBEAYAQBQBCFAAIUQAgRAGAEAUAQhQACK+k0jODg4Otdnv27Clvvnz5Ut6sWrWqvPFKKv3GTQGAEAUAQhQACFEAIEQBgBAFAEIUAAhRACBEAYAQBQBCFAAIUQAgOt1utzumH+x0xvtb+BcZGBgob168eNHqrKtXr5Y3x44dK2/G+KvwP379+lXewEQZy99xNwUAQhQACFEAIEQBgBAFAEIUAAhRACBEAYAQBQBCFAAIUQAgRAGAmDbRH8C/0759+8qbb9++tTrr9OnT5c3Pnz9bnQWTnZsCACEKAIQoABCiAECIAgAhCgCEKAAQogBAiAIAIQoAhCgAEKIAQHgQj1aOHj1a3ly4cKHVWe/evWu1A+rcFAAIUQAgRAGAEAUAQhQACFEAIEQBgBAFAEIUAAhRACBEAYAQBQDCg3g0AwMD5c3MmTPLm2fPnpU3QG+5KQAQogBAiAIAIQoAhCgAEKIAQIgCACEKAIQoABCiAECIAgAhCgCEKAAQXkml2bhxY0/OuXnzZk/OAdpzUwAgRAGAEAUAQhQACFEAIEQBgBAFAEIUAAhRACBEAYAQBQBCFAAID+LR7N27t7z5/v17efPhw4fyBugtNwUAQhQACFEAIEQBgBAFAEIUAAhRACBEAYAQBQBCFAAIUQAgRAGA8CBen+l0OuXN3Llzy5vh4eHyhr9ncHCwvBkaGvrnP+QvfPr0qby5e/duq7Nu3rxZ3nS73VZnTUZuCgCEKAAQogBAiAIAIQoAhCgAEKIAQIgCACEKAIQoABCiAECIAgDhQbw+s3DhwvJm+fLl5c2pU6fKm340Y8aM8ubkyZOtzjp48GB58/r16/Lm8+fPPTln//795U3TNM22bdvKm9u3b7c6azJyUwAgRAGAEAUAQhQACFEAIEQBgBAFAEIUAAhRACBEAYAQBQBCFAAIUQAgvJJKKx8+fJjoT/jHTZlS/3+kS5culTe7du0qb5qm3auiV65cKW++f/9e3rSxdevWVrsLFy6UNytXrixvRkdHy5t+4KYAQIgCACEKAIQoABCiAECIAgAhCgCEKAAQogBAiAIAIQoAhCgAEB7E6zOLFy/uyTkPHz7syTm9dO7cufJmw4YNPdk0TdMMDw+XN91ut9VZvXDr1q1Wu1mzZpU3s2fPLm88iAfApCcKAIQoABCiAECIAgAhCgCEKAAQogBAiAIAIQoAhCgAEKIAQHgQr8/Mnz9/oj/hj7BgwYLyZsuWLeXNjh07ypuRkZHyph99/fq11e758+flzdq1a8ub69evlzf9wE0BgBAFAEIUAAhRACBEAYAQBQBCFAAIUQAgRAGAEAUAQhQACFEAIDyI12d+/PjRk3MWLVpU3oyOjo7Dl/y1nTt3ljdtHtG7f/9+eUPvDQwMTPQn/Gu4KQAQogBAiAIAIQoAhCgAEKIAQIgCACEKAIQoABCiAECIAgAhCgCEB/H6zL1798qb9+/flzd79+4tbw4cOFDetPXgwYPyZtq0+q/D+vXry5vbt2+XN/2ozZ930zTNnDlzyptPnz61OmsyclMAIEQBgBAFAEIUAAhRACBEAYAQBQBCFAAIUQAgRAGAEAUAQhQACFEAILyS2mc+f/5c3rx9+7a82bZtW3lz6NCh8qZpmubnz5/lzcePH8ub379/lzdTp04tb/ivtq/mLliwoLwZHh5uddZk5KYAQIgCACEKAIQoABCiAECIAgAhCgCEKAAQogBAiAIAIQoAhCgAEJ1ut9sd0w92OuP9LUyQoaGh8ubatWvlzfnz58ubpmn/cFrVxYsXy5vNmzeXN5cvXy5vmqZpvn371mpXde/evfJm8eLF5c2lS5fKm6Zpmk2bNpU3IyMjrc7qN2P5z72bAgAhCgCEKAAQogBAiAIAIQoAhCgAEKIAQIgCACEKAIQoABCiAEB4EI9Wrl+/Xt5s3bq11Vlnz54tb86cOVPejI6OljcbN24sb+bNm1feNE2738EZM2aUN0uXLi1vVqxYUd4cPny4vGmapnn8+HGrHR7EA6BIFAAIUQAgRAGAEAUAQhQACFEAIEQBgBAFAEIUAAhRACBEAYDwIB6tTJ8+vbw5ceJEq7MOHjxY3rx9+7a8uXHjRnnz5s2b8qatNg8KrlmzprwZHh4ub44cOVLePH36tLzh7/EgHgAlogBAiAIAIQoAhCgAEKIAQIgCACEKAIQoABCiAECIAgAhCgCEB/H4461evbq82b59e3mzbt268mbZsmXlzZ07d8qbpmmaJ0+elDd3794tb0ZGRsqb379/lzf0ngfxACgRBQBCFAAIUQAgRAGAEAUAQhQACFEAIEQBgBAFAEIUAAhRACBEAYDwSirAJOGVVABKRAGAEAUAQhQACFEAIEQBgBAFAEIUAAhRACBEAYAQBQBCFAAIUQAgRAGAEAUAQhQACFEAIEQBgBAFAEIUAAhRACBEAYAQBQBCFAAIUQAgRAGAEAUAQhQACFEAIEQBgBAFAEIUAAhRACBEAYAQBQBCFAAIUQAgRAGAEAUAQhQACFEAIEQBgBAFAEIUAAhRACBEAYAQBQBCFAAIUQAgRAGAEAUAQhQACFEAIEQBgBAFAEIUAAhRACBEAYAQBQBCFAAIUQAgRAGAEAUAQhQACFEAIEQBgBAFAEIUAAhRACBEAYAQBQBCFAAIUQAgRAGAEAUAQhQACFEAIEQBgJg21h/sdrvj+R0A/AHcFAAIUQAgRAGAEAUAQhQACFEAIEQBgBAFAEIUAIj/AGBAPAAdh7cyAAAAAElFTkSuQmCC;" vertex="1" parent="1">
          <mxGeometry x="680" y="100" width="100" height="100" as="geometry" />
        </mxCell>
        <mxCell id="Ax1zpurAWLt4gDFZBOKB-26" value="" style="shape=image;verticalLabelPosition=bottom;labelBackgroundColor=default;verticalAlign=top;imageAspect=0;image=data:image/png,iVBORw0KGgoAAAANSUhEUgAAAYUAAAGFCAYAAAASI+9IAAAAOXRFWHRTb2Z0d2FyZQBNYXRwbG90bGliIHZlcnNpb24zLjcuMSwgaHR0cHM6Ly9tYXRwbG90bGliLm9yZy/bCgiHAAAACXBIWXMAAA9hAAAPYQGoP6dpAAAJO0lEQVR4nO3cTYjOex/H8f/luTQ21KGkbGSFhbIQZiWSsmFKWAqlSGRnJxZkoYQiCws7S9Q0kqQ8ZGkhRKKUTMpTuO7FXZ+669Q93/85cw3XvF7r+fT7J3Pe57fw63S73W4DAE3TTJnoDwDg9yEKAIQoABCiAECIAgAhCgCEKAAQogBATBvrDy5evHg8v+OP8eLFi/KmH//sXr58OdGfABSN5d8quykAEKIAQIgCACEKAIQoABCiAECIAgAhCgCEKAAQogBAiAIAIQoARKc7lheSmqbpdDrj/S0AjCMP4gFQIgoAhCgAEKIAQIgCACEKAIQoABCiAECIAgAhCgCEKAAQogBATJvoD4D/59ixY+XNrl27ypuhoaHy5uHDh+UN/M7cFAAIUQAgRAGAEAUAQhQACFEAIEQBgBAFAEIUAAhRACBEAYAQBQBCFAAIr6TSM4ODg612u3fvLm8+f/5c3qxcubK88Uoq/cZNAYAQBQBCFAAIUQAgRAGAEAUAQhQACFEAIEQBgBAFAEIUAAhRACA63W63O6Yf7HTG+1v4gwwMDJQ3z58/b3XWlStXypujR4+WN2P8VfgfP3/+LG9goozl77ibAgAhCgCEKAAQogBAiAIAIQoAhCgAEKIAQIgCACEKAIQoABCiAEBMm+gP4M+0d+/e8ubr16+tzjp16lR58+PHj1ZnwWTnpgBAiAIAIQoAhCgAEKIAQIgCACEKAIQoABCiAECIAgAhCgCEKAAQHsSjlSNHjpQ358+fb3XW27dvW+2AOjcFAEIUAAhRACBEAYAQBQBCFAAIUQAgRAGAEAUAQhQACFEAIEQBgPAgHs3AwEB5M3PmzPLm6dOn5Q3QW24KAIQoABCiAECIAgAhCgCEKAAQogBAiAIAIQoAhCgAEKIAQIgCACEKAIRXUmk2bNjQk3Nu3LjRk3OA9twUAAhRACBEAYAQBQBCFAAIUQAgRAGAEAUAQhQACFEAIEQBgBAFAMKDeDR79uwpb759+1bevH//vrwBestNAYAQBQBCFAAIUQAgRAGAEAUAQhQACFEAIEQBgBAFAEIUAAhRACA8iNdnOp1OeTN37tzyZnh4uLzhnxkcHCxvhoaG/v0P+RsfP34sb+7cudPqrBs3bpQ33W631VmTkZsCACEKAIQoABCiAECIAgAhCgCEKAAQogBAiAIAIQoAhCgAEKIAQHgQr88sWLCgvFm2bFl5c/LkyfKmH82YMaO8OXHiRKuzDhw4UN68evWqvPn06VNPztm3b1950zRNs3Xr1vLm1q1brc6ajNwUAAhRACBEAYAQBQBCFAAIUQAgRAGAEAUAQhQACFEAIEQBgBAFAEIUAAivpNLK+/fvJ/oT/nVTptT/H+nixYvlzc6dO8ubpmn3qujly5fLm2/fvpU3bWzZsqXV7vz58+XNihUrypvR0dHyph+4KQAQogBAiAIAIQoAhCgAEKIAQIgCACEKAIQoABCiAECIAgAhCgCEB/H6zKJFi3pyzoMHD3pyTi+dPXu2vFm/fn1PNk3TNMPDw+VNt9ttdVYv3Lx5s9Vu1qxZ5c3s2bPLGw/iATDpiQIAIQoAhCgAEKIAQIgCACEKAIQoABCiAECIAgAhCgCEKAAQHsTrM3/99ddEf8JvYf78+eXN5s2by5vt27eXNyMjI+VNP/ry5Uur3bNnz8qbNWvWlDfXrl0rb/qBmwIAIQoAhCgAEKIAQIgCACEKAIQoABCiAECIAgAhCgCEKAAQogBAeBCvz3z//r0n5yxcuLC8GR0dHYcv+Xs7duwob9o8onfv3r3yht4bGBiY6E/4Y7gpABCiAECIAgAhCgCEKAAQogBAiAIAIQoAhCgAEKIAQIgCACEKAIQH8frM3bt3y5t3796VN3v27Clv9u/fX960df/+/fJm2rT6r8O6devKm1u3bpU3/ajNn3fTNM2cOXPKm48fP7Y6azJyUwAgRAGAEAUAQhQACFEAIEQBgBAFAEIUAAhRACBEAYAQBQBCFAAIUQAgvJLaZz59+lTevHnzprzZunVreXPw4MHypmma5sePH+XNhw8fyptfv36VN1OnTi1v+K+2r+bOnz+/vBkeHm511mTkpgBAiAIAIQoAhCgAEKIAQIgCACEKAIQoABCiAECIAgAhCgCEKAAQnW632x3TD3Y64/0tTJChoaHy5urVq+XNuXPnypumaf9wWtWFCxfKm02bNpU3ly5dKm+apmm+fv3aald19+7d8mbRokXlzcWLF8ubpmmajRs3ljcjIyOtzuo3Y/nPvZsCACEKAIQoABCiAECIAgAhCgCEKAAQogBAiAIAIQoAhCgAEKIAQHgQj1auXbtW3mzZsqXVWWfOnClvTp8+Xd6Mjo6WNxs2bChv5s2bV940TbvfwRkzZpQ3S5YsKW+WL19e3hw6dKi8aZqmefToUasdHsQDoEgUAAhRACBEAYAQBQBCFAAIUQAgRAGAEAUAQhQACFEAIEQBgPAgHq1Mnz69vDl+/Hirsw4cOFDevHnzpry5fv16efP69evypq02DwquXr26vBkeHi5vDh8+XN48efKkvOGf8SAeACWiAECIAgAhCgCEKAAQogBAiAIAIQoAhCgAEKIAQIgCACEKAIQH8fjtrVq1qrzZtm1bebN27dryZunSpeXN7du3y5umaZrHjx+XN3fu3ClvRkZGyptfv36VN/SeB/EAKBEFAEIUAAhRACBEAYAQBQBCFAAIUQAgRAGAEAUAQhQACFEAIEQBgPBKKsAk4ZVUAEpEAYAQBQBCFAAIUQAgRAGAEAUAQhQACFEAIEQBgBAFAEIUAAhRACBEAYAQBQBCFAAIUQAgRAGAEAUAQhQACFEAIEQBgBAFAEIUAAhRACBEAYAQBQBCFAAIUQAgRAGAEAUAQhQACFEAIEQBgBAFAEIUAAhRACBEAYAQBQBCFAAIUQAgRAGAEAUAQhQACFEAIEQBgBAFAEIUAAhRACBEAYAQBQBCFAAIUQAgRAGAEAUAQhQACFEAIEQBgBAFAEIUAAhRACBEAYAQBQBCFAAIUQAgRAGAEAUAQhQACFEAIEQBgBAFAEIUAAhRACBEAYAQBQBCFAAIUQAgRAGAmDbWH+x2u+P5HQD8BtwUAAhRACBEAYAQBQBCFAAIUQAgRAGAEAUAQhQAiP8AxDE8AP92GDEAAAAASUVORK5CYII=;" vertex="1" parent="1">
          <mxGeometry x="780" y="100" width="100" height="100" as="geometry" />
        </mxCell>
        <mxCell id="Ax1zpurAWLt4gDFZBOKB-27" value="" style="shape=image;verticalLabelPosition=bottom;labelBackgroundColor=default;verticalAlign=top;imageAspect=0;image=data:image/png,iVBORw0KGgoAAAANSUhEUgAAAYUAAAGFCAYAAAASI+9IAAAAOXRFWHRTb2Z0d2FyZQBNYXRwbG90bGliIHZlcnNpb24zLjcuMSwgaHR0cHM6Ly9tYXRwbG90bGliLm9yZy/bCgiHAAAACXBIWXMAAA9hAAAPYQGoP6dpAAAJO0lEQVR4nO3cTYjOex/H8f/luTQ2FErKRlZYKAthViIpG6aEpVCKRHZ2YkEWSiiysLCzRE0jScpDlhZCJErJpDyF617c9am7Tt3z/Z8z1zjXvF7r+fT7J3Pe57fw63S73W4DAE3TTJnoDwDgzyEKAIQoABCiAECIAgAhCgCEKAAQogBATBvrDy5ZsmQ8v6OvvXz5srz50/+8X716NdGfABSN5d8quykAEKIAQIgCACEKAIQoABCiAECIAgAhCgCEKAAQogBAiAIAIQoARKc7lheSmqbpdDrj/S0AjCMP4gFQIgoAhCgAEKIAQIgCACEKAIQoABCiAECIAgAhCgCEKAAQogBATJvoD4D/5/jx4+XN7t27y5uhoaHy5tGjR+UN/MncFAAIUQAgRAGAEAUAQhQACFEAIEQBgBAFAEIUAAhRACBEAYAQBQBCFAAIr6TSM4ODg612e/bsKW++fPlS3qxataq88Uoq/cZNAYAQBQBCFAAIUQAgRAGAEAUAQhQACFEAIEQBgBAFAEIUAAhRACA63W63O6Yf7HTG+1v4FxkYGChvXrx40eqsq1evljfHjh0rb8b4q/A/fv36Vd7ARBnL33E3BQBCFAAIUQAgRAGAEAUAQhQACFEAIEQBgBAFAEIUAAhRACBEAYCYNtEfwL/Tvn37yptv3761Ouv06dPlzc+fP1udBZOdmwIAIQoAhCgAEKIAQIgCACEKAIQoABCiAECIAgAhCgCEKAAQogBAeBCPVo4ePVreXLhwodVZ7969a7UD6twUAAhRACBEAYAQBQBCFAAIUQAgRAGAEAUAQhQACFEAIEQBgBAFAMKDeDQDAwPlzcyZM8ubZ8+elTdAb7kpABCiAECIAgAhCgCEKAAQogBAiAIAIQoAhCgAEKIAQIgCACEKAIQoABBeSaXZuHFjT865efNmT84B2nNTACBEAYAQBQBCFAAIUQAgRAGAEAUAQhQACFEAIEQBgBAFAEIUAAgP4tHs3bu3vPn+/Xt58+HDh/IG6C03BQBCFAAIUQAgRAGAEAUAQhQACFEAIEQBgBAFAEIUAAhRACBEAYDwIF6f6XQ65c3cuXPLm+Hh4fKGv2dwcLC8GRoa+uc/5C98+vSpvLl7926rs27evFnedLvdVmdNRm4KAIQoABCiAECIAgAhCgCEKAAQogBAiAIAIQoAhCgAEKIAQIgCAOFBvD6zcOHC8mb58uXlzalTp8qbfjRjxozy5uTJk63OOnjwYHnz+vXr8ubz5889OWf//v3lTdM0zbZt28qb27dvtzprMnJTACBEAYAQBQBCFAAIUQAgRAGAEAUAQhQACFEAIEQBgBAFAEIUAAhRACC8kkorHz58mOhP+MdNmVL/f6RLly6VN7t27Spvmqbdq6JXrlwpb75//17etLF169ZWuwsXLpQ3K1euLG9GR0fLm37gpgBAiAIAIQoAhCgAEKIAQIgCACEKAIQoABCiAECIAgAhCgCEKAAQHsTrM4sXL+7JOQ8fPuzJOb107ty58mbDhg092TRN0wwPD5c33W631Vm9cOvWrVa7WbNmlTezZ88ubzyIB8CkJwoAhCgAEKIAQIgCACEKAIQoABCiAECIAgAhCgCEKAAQogBAeBCvz8yfP3+iP+GPsGDBgvJmy5Yt5c2OHTvKm5GRkfKmH339+rXV7vnz5+XN2rVry5vr16+XN/3ATQGAEAUAQhQACFEAIEQBgBAFAEIUAAhRACBEAYAQBQBCFAAIUQAgPIjXZ378+NGTcxYtWlTejI6OjsOX/LWdO3eWN20e0bt//355Q+8NDAxM9Cf8a7gpABCiAECIAgAhCgCEKAAQogBAiAIAIQoAhCgAEKIAQIgCACEKAIQH8frMvXv3ypv379+XN3v37i1vDhw4UN609eDBg/Jm2rT6r8P69evLm9u3b5c3/ajNn3fTNM2cOXPKm0+fPrU6azJyUwAgRAGAEAUAQhQACFEAIEQBgBAFAEIUAAhRACBEAYAQBQBCFAAIUQAgvJLaZz5//lzevH37trzZtm1beXPo0KHypmma5ufPn+XNx48fy5vfv3+XN1OnTi1v+K+2r+YuWLCgvBkeHm511mTkpgBAiAIAIQoAhCgAEKIAQIgCACEKAIQoABCiAECIAgAhCgCEKAAQnW632x3TD3Y64/0tTJChoaHy5tq1a+XN+fPny5umaf9wWtXFixfLm82bN5c3ly9fLm+apmm+ffvWald179698mbx4sXlzaVLl8qbpmmaTZs2lTcjIyOtzuo3Y/nPvZsCACEKAIQoABCiAECIAgAhCgCEKAAQogBAiAIAIQoAhCgAEKIAQHgQj1auX79e3mzdurXVWWfPni1vzpw5U96Mjo6WNxs3bixv5s2bV940TbvfwRkzZpQ3S5cuLW9WrFhR3hw+fLi8aZqmefz4casdHsQDoEgUAAhRACBEAYAQBQBCFAAIUQAgRAGAEAUAQhQACFEAIEQBgPAgHq1Mnz69vDlx4kSrsw4ePFjevH37try5ceNGefPmzZvypq02DwquWbOmvBkeHi5vjhw5Ut48ffq0vOHv8SAeACWiAECIAgAhCgCEKAAQogBAiAIAIQoAhCgAEKIAQIgCACEKAIQH8fjjrV69urzZvn17ebNu3bryZtmyZeXNnTt3ypumaZonT56UN3fv3i1vRkZGypvfv3+XN/SeB/EAKBEFAEIUAAhRACBEAYAQBQBCFAAIUQAgRAGAEAUAQhQACFEAIEQBgPBKKsAk4ZVUAEpEAYAQBQBCFAAIUQAgRAGAEAUAQhQACFEAIEQBgBAFAEIUAAhRACBEAYAQBQBCFAAIUQAgRAGAEAUAQhQACFEAIEQBgBAFAEIUAAhRACBEAYAQBQBCFAAIUQAgRAGAEAUAQhQACFEAIEQBgBAFAEIUAAhRACBEAYAQBQBCFAAIUQAgRAGAEAUAQhQACFEAIEQBgBAFAEIUAAhRACBEAYAQBQBCFAAIUQAgRAGAEAUAQhQACFEAIEQBgBAFAEIUAAhRACBEAYAQBQBCFAAIUQAgRAGAEAUAQhQACFEAIEQBgBAFAEIUAAhRACBEAYAQBQBCFAAIUQAgRAGAmDbWH+x2u+P5HQD8AdwUAAhRACBEAYAQBQBCFAAIUQAgRAGAEAUAQhQAiP8AKDE8AHo4fY4AAAAASUVORK5CYII=;imageBorder=#00FF00;strokeWidth=5;" vertex="1" parent="1">
          <mxGeometry x="580" y="200" width="100" height="100" as="geometry" />
        </mxCell>
        <mxCell id="Ax1zpurAWLt4gDFZBOKB-29" value="" style="shape=image;verticalLabelPosition=bottom;labelBackgroundColor=default;verticalAlign=top;imageAspect=0;image=data:image/png,iVBORw0KGgoAAAANSUhEUgAAAYUAAAGFCAYAAAASI+9IAAAAOXRFWHRTb2Z0d2FyZQBNYXRwbG90bGliIHZlcnNpb24zLjcuMSwgaHR0cHM6Ly9tYXRwbG90bGliLm9yZy/bCgiHAAAACXBIWXMAAA9hAAAPYQGoP6dpAAAJOklEQVR4nO3cTYjOex/H8f/luTQ2FErKRlZYKAt5WImkbJgSlkIpEtnZiQVZKKHIwsLOEjWNJCkPWVoIkSglk/IUrntx16fuOnXP93/MNVzzeq3n0++fc+a8/Rbn1+l2u90GAJqmmTTeHwDAn0MUAAhRACBEAYAQBQBCFAAIUQAgRAGAmDLaH1y0aNFYfge/yYsXL8qbNv9sX758Wd4A42s0/6+ymwIAIQoAhCgAEKIAQIgCACEKAIQoABCiAECIAgAhCgCEKAAQogBAdLqjeSGpaZpOpzPW3wLAGPIgHgAlogBAiAIAIQoAhCgAEKIAQIgCACEKAIQoABCiAECIAgAhCgDElPH+APh/jh07Vt7s2rWrvBkcHCxvHj58WN7An8xNAYAQBQBCFAAIUQAgRAGAEAUAQhQACFEAIEQBgBAFAEIUAAhRACBEAYDwSio9s27dula73bt3lzefP38ub1asWFHeeCWVfuOmAECIAgAhCgCEKAAQogBAiAIAIQoAhCgAEKIAQIgCACEKAIQoABCdbrfbHdUPdjpj/S38RQYGBsqb58+ftzrrypUr5c3Ro0fLm1H+KvyPnz9/ljcwXkbz77ibAgAhCgCEKAAQogBAiAIAIQoAhCgAEKIAQIgCACEKAIQoABCiAEBMGe8P4O+0d+/e8ubr16+tzjp16lR58+PHj1ZnwUTnpgBAiAIAIQoAhCgAEKIAQIgCACEKAIQoABCiAECIAgAhCgCEKAAQHsSjlSNHjpQ358+fb3XW27dvW+2AOjcFAEIUAAhRACBEAYAQBQBCFAAIUQAgRAGAEAUAQhQACFEAIEQBgPAgHs3AwEB5M3369PLm6dOn5Q3QW24KAIQoABCiAECIAgAhCgCEKAAQogBAiAIAIQoAhCgAEKIAQIgCACEKAIRXUmk2bNjQk3Nu3LjRk3OA9twUAAhRACBEAYAQBQBCFAAIUQAgRAGAEAUAQhQACFEAIEQBgBAFAMKDeDR79uwpb759+1bevH//vrwBestNAYAQBQBCFAAIUQAgRAGAEAUAQhQACFEAIEQBgBAFAEIUAAhRACA8iNdnOp1OeTN79uzyZmhoqLzh31m3bl15Mzg4+Ps/5B98/PixvLlz506rs27cuFHedLvdVmdNRG4KAIQoABCiAECIAgAhCgCEKAAQogBAiAIAIQoAhCgAEKIAQIgCAOFBvD4zf/788mbp0qXlzcmTJ8ubfjRt2rTy5sSJE63OOnDgQHnz6tWr8ubTp089OWffvn3lTdM0zdatW8ubW7dutTprInJTACBEAYAQBQBCFAAIUQAgRAGAEAUAQhQACFEAIEQBgBAFAEIUAAhRACC8kkor79+/H+9P+O0mTar/HenixYvlzc6dO8ubpmn3qujly5fLm2/fvpU3bWzZsqXV7vz58+XN8uXLy5uRkZHyph+4KQAQogBAiAIAIQoAhCgAEKIAQIgCACEKAIQoABCiAECIAgAhCgCEB/H6zMKFC3tyzoMHD3pyTi+dPXu2vFm/fn1PNk3TNENDQ+VNt9ttdVYv3Lx5s9VuxowZ5c3MmTPLGw/iATDhiQIAIQoAhCgAEKIAQIgCACEKAIQoABCiAECIAgAhCgCEKAAQHsTrM3Pnzh3vT/gjzJs3r7zZvHlzebN9+/byZnh4uLzpR1++fGm1e/bsWXmzevXq8ubatWvlTT9wUwAgRAGAEAUAQhQACFEAIEQBgBAFAEIUAAhRACBEAYAQBQBCFAAID+L1me/fv/fknAULFpQ3IyMjY/Al/2zHjh3lTZtH9O7du1fe0HsDAwPj/Ql/DTcFAEIUAAhRACBEAYAQBQBCFAAIUQAgRAGAEAUAQhQACFEAIEQBgPAgXp+5e/duefPu3bvyZs+ePeXN/v37y5u27t+/X95MmVL/dVi7dm15c+vWrfKmH7X5826appk1a1Z58/Hjx1ZnTURuCgCEKAAQogBAiAIAIQoAhCgAEKIAQIgCACEKAIQoABCiAECIAgAhCgCEV1L7zKdPn8qbN2/elDdbt24tbw4ePFjeNE3T/Pjxo7z58OFDefPr16/yZvLkyeUN/9X21dx58+aVN0NDQ63OmojcFAAIUQAgRAGAEAUAQhQACFEAIEQBgBAFAEIUAAhRACBEAYAQBQCi0+12u6P6wU5nrL+FcTI4OFjeXL16tbw5d+5cedM07R9Oq7pw4UJ5s2nTpvLm0qVL5U3TNM3Xr19b7aru3r1b3ixcuLC8uXjxYnnTNE2zcePG8mZ4eLjVWf1mNP+5d1MAIEQBgBAFAEIUAAhRACBEAYAQBQBCFAAIUQAgRAGAEAUAQhQACA/i0cq1a9fKmy1btrQ668yZM+XN6dOny5uRkZHyZsOGDeXNnDlzypumafc7OG3atPJm8eLF5c2yZcvKm0OHDpU3TdM0jx49arXDg3gAFIkCACEKAIQoABCiAECIAgAhCgCEKAAQogBAiAIAIQoAhCgAEB7Eo5WpU6eWN8ePH2911oEDB8qbN2/elDfXr18vb16/fl3etNXmQcFVq1aVN0NDQ+XN4cOHy5snT56UN/w7HsQDoEQUAAhRACBEAYAQBQBCFAAIUQAgRAGAEAUAQhQACFEAIEQBgPAgHn+8lStXljfbtm0rb9asWVPeLFmypLy5fft2edM0TfP48ePy5s6dO+XN8PBwefPr16/yht7zIB4AJaIAQIgCACEKAIQoABCiAECIAgAhCgCEKAAQogBAiAIAIQoAhCgAEF5JBZggvJIKQIkoABCiAECIAgAhCgCEKAAQogBAiAIAIQoAhCgAEKIAQIgCACEKAIQoABCiAECIAgAhCgCEKAAQogBAiAIAIQoAhCgAEKIAQIgCACEKAIQoABCiAECIAgAhCgCEKAAQogBAiAIAIQoAhCgAEKIAQIgCACEKAIQoABCiAECIAgAhCgCEKAAQogBAiAIAIQoAhCgAEKIAQIgCACEKAIQoABCiAECIAgAhCgCEKAAQogBAiAIAIQoAhCgAEKIAQIgCACEKAIQoABCiAECIAgAhCgCEKAAQogBAiAIAIQoAhCgAEKIAQIgCACEKAIQoABCiAECIAgAhCgCEKAAQU0b7g91udyy/A4A/gJsCACEKAIQoABCiAECIAgAhCgCEKAAQogBAiAIA8R/kEzwAofTElAAAAABJRU5ErkJggg==;" vertex="1" parent="1">
          <mxGeometry x="780" y="200" width="100" height="100" as="geometry" />
        </mxCell>
        <mxCell id="Ax1zpurAWLt4gDFZBOKB-30" value="" style="shape=image;verticalLabelPosition=bottom;labelBackgroundColor=default;verticalAlign=top;imageAspect=0;image=data:image/png,iVBORw0KGgoAAAANSUhEUgAAAYUAAAGFCAYAAAASI+9IAAAAOXRFWHRTb2Z0d2FyZQBNYXRwbG90bGliIHZlcnNpb24zLjcuMSwgaHR0cHM6Ly9tYXRwbG90bGliLm9yZy/bCgiHAAAACXBIWXMAAA9hAAAPYQGoP6dpAAAJMklEQVR4nO3cTYjOex/H8f/luTQ2lFFSNrLCQlmIYyWSsmFKWAqlSGRnJxZkocQUWVjYWaKmkSTlIUsLUSRKyaQ8hete3PWpu07d8/2fM9dwzeu1nk+/f6cz3n4Lv0632+02ANA0zbTJ/gAAfh+iAECIAgAhCgCEKAAQogBAiAIAIQoAxIzx/uDSpUsn8juYRC9fvixvOp3OBHwJMJHG82+V3RQACFEAIEQBgBAFAEIUAAhRACBEAYAQBQBCFAAIUQAgRAGAEAUAotMdzwtJjQfQAP50HsQDoEQUAAhRACBEAYAQBQBCFAAIUQAgRAGAEAUAQhQACFEAIEQBgJgx2R8A/8+JEyfKmz179pQ3Q0ND5c2jR4/KG/iduSkAEKIAQIgCACEKAIQoABCiAECIAgAhCgCEKAAQogBAiAIAIQoAhCgAEF5JpWc2bNjQard3797y5vPnz+XN6tWryxuvpNJv3BQACFEAIEQBgBAFAEIUAAhRACBEAYAQBQBCFAAIUQAgRAGAEAUAotPtdrvj+sFOZ6K/hT/IwMBAefPixYtWZ129erW8OX78eHkzzl+F//Hz58/yBibLeP4fd1MAIEQBgBAFAEIUAAhRACBEAYAQBQBCFAAIUQAgRAGAEAUAQhQAiBmT/QH8mfbv31/efP36tdVZZ86cKW9+/PjR6iyY6twUAAhRACBEAYAQBQBCFAAIUQAgRAGAEAUAQhQACFEAIEQBgBAFAMKDeLRy7Nix8ubixYutznr79m2rHVDnpgBAiAIAIQoAhCgAEKIAQIgCACEKAIQoABCiAECIAgAhCgCEKAAQHsSjGRgYKG9mz55d3jx79qy8AXrLTQGAEAUAQhQACFEAIEQBgBAFAEIUAAhRACBEAYAQBQBCFAAIUQAgRAGA8EoqzaZNm3pyzs2bN3tyDtCemwIAIQoAhCgAEKIAQIgCACEKAIQoABCiAECIAgAhCgCEKAAQogBAeBCPZt++feXNt2/fypv379+XN0BvuSkAEKIAQIgCACEKAIQoABCiAECIAgAhCgCEKAAQogBAiAIAIQoAhAfx+kyn0ylv5s+fX96MjIyUN/wzGzZsKG+Ghob+/Q/5Gx8/fixv7t692+qsmzdvljfdbrfVWVORmwIAIQoAhCgAEKIAQIgCACEKAIQoABCiAECIAgAhCgCEKAAQogBAeBCvzyxatKi8WbFiRXlz+vTp8qYfzZo1q7w5depUq7MOHTpU3rx69aq8+fTpU0/OOXDgQHnTNE2zffv28ub27dutzpqK3BQACFEAIEQBgBAFAEIUAAhRACBEAYAQBQBCFAAIUQAgRAGAEAUAQhQACK+k0sr79+8n+xP+ddOm1f+ONDw8XN7s3r27vGmadq+KXrlypbz59u1bedPGtm3bWu0uXrxY3qxataq8GRsbK2/6gZsCACEKAIQoABCiAECIAgAhCgCEKAAQogBAiAIAIQoAhCgAEKIAQHgQr88sWbKkJ+c8fPiwJ+f00vnz58ubjRs39mTTNE0zMjJS3nS73VZn9cKtW7da7ebMmVPezJ07t7zxIB4AU54oABCiAECIAgAhCgCEKAAQogBAiAIAIQoAhCgAEKIAQIgCAOFBvD6zcOHCyf6E38Lg4GB5s3Xr1vJm586d5c3o6Gh504++fPnSavf8+fPyZt26deXN9evXy5t+4KYAQIgCACEKAIQoABCiAECIAgAhCgCEKAAQogBAiAIAIQoAhCgAEB7E6zPfv3/vyTmLFy8ub8bGxibgS/7erl27yps2j+jdv3+/vKH3BgYGJvsT/hhuCgCEKAAQogBAiAIAIQoAhCgAEKIAQIgCACEKAIQoABCiAECIAgDhQbw+c+/evfLm3bt35c2+ffvKm4MHD5Y3bT148KC8mTGj/uvw119/lTe3b98ub/pRm//eTdM08+bNK28+fvzY6qypyE0BgBAFAEIUAAhRACBEAYAQBQBCFAAIUQAgRAGAEAUAQhQACFEAIEQBgPBKap/59OlTefPmzZvyZvv27eXN4cOHy5umaZofP36UNx8+fChvfv36Vd5Mnz69vOG/2r6aOzg4WN6MjIy0OmsqclMAIEQBgBAFAEIUAAhRACBEAYAQBQBCFAAIUQAgRAGAEAUAQhQAiE632+2O6wc7nYn+FibJ0NBQeXPt2rXy5sKFC+VN07R/OK3q0qVL5c2WLVvKm8uXL5c3TdM0X79+bbWrunfvXnmzZMmS8mZ4eLi8aZqm2bx5c3kzOjra6qx+M54/7t0UAAhRACBEAYAQBQBCFAAIUQAgRAGAEAUAQhQACFEAIEQBgBAFAMKDeLRy/fr18mbbtm2tzjp37lx5c/bs2fJmbGysvNm0aVN5s2DBgvKmadr9Ds6aNau8WbZsWXmzcuXK8ubIkSPlTdM0zePHj1vt8CAeAEWiAECIAgAhCgCEKAAQogBAiAIAIQoAhCgAEKIAQIgCACEKAIQH8Whl5syZ5c3JkydbnXXo0KHy5s2bN+XNjRs3ypvXr1+XN221eVBw7dq15c3IyEh5c/To0fLm6dOn5Q3/jAfxACgRBQBCFAAIUQAgRAGAEAUAQhQACFEAIEQBgBAFAEIUAAhRACA8iMdvb82aNeXNjh07ypv169eXN8uXLy9v7ty5U940TdM8efKkvLl79255Mzo6Wt78+vWrvKH3PIgHQIkoABCiAECIAgAhCgCEKAAQogBAiAIAIQoAhCgAEKIAQIgCACEKAIRXUgGmCK+kAlAiCgCEKAAQogBAiAIAIQoAhCgAEKIAQIgCACEKAIQoABCiAECIAgAhCgCEKAAQogBAiAIAIQoAhCgAEKIAQIgCACEKAIQoABCiAECIAgAhCgCEKAAQogBAiAIAIQoAhCgAEKIAQIgCACEKAIQoABCiAECIAgAhCgCEKAAQogBAiAIAIQoAhCgAEKIAQIgCACEKAIQoABCiAECIAgAhCgCEKAAQogBAiAIAIQoAhCgAEKIAQIgCACEKAIQoABCiAECIAgAhCgCEKAAQogBAiAIAIQoAhCgAEKIAQIgCACEKAIQoABCiAECIAgAhCgCEKAAQogBAiAIAIQoAxIzx/mC3253I7wDgN+CmAECIAgAhCgCEKAAQogBAiAIAIQoAhCgAEKIAQPwH3BQ5ADFVVMAAAAAASUVORK5CYII=;" vertex="1" parent="1">
          <mxGeometry x="580" y="300" width="100" height="100" as="geometry" />
        </mxCell>
        <mxCell id="Ax1zpurAWLt4gDFZBOKB-31" value="&lt;b&gt;&lt;font color=&quot;#ff0000&quot; style=&quot;font-size: 20px;&quot;&gt;0&lt;/font&gt;&lt;/b&gt;" style="text;html=1;strokeColor=none;fillColor=none;align=center;verticalAlign=middle;whiteSpace=wrap;rounded=0;" vertex="1" parent="1">
          <mxGeometry x="580" y="10" width="20" height="20" as="geometry" />
        </mxCell>
        <mxCell id="Ax1zpurAWLt4gDFZBOKB-32" value="&lt;b&gt;&lt;font color=&quot;#ff0000&quot; style=&quot;font-size: 20px;&quot;&gt;1&lt;/font&gt;&lt;/b&gt;" style="text;html=1;strokeColor=none;fillColor=none;align=center;verticalAlign=middle;whiteSpace=wrap;rounded=0;" vertex="1" parent="1">
          <mxGeometry x="680" y="10" width="20" height="20" as="geometry" />
        </mxCell>
        <mxCell id="Ax1zpurAWLt4gDFZBOKB-33" value="&lt;b&gt;&lt;font color=&quot;#ff0000&quot; style=&quot;font-size: 20px;&quot;&gt;2&lt;/font&gt;&lt;/b&gt;" style="text;html=1;strokeColor=none;fillColor=none;align=center;verticalAlign=middle;whiteSpace=wrap;rounded=0;" vertex="1" parent="1">
          <mxGeometry x="780" y="10" width="20" height="20" as="geometry" />
        </mxCell>
        <mxCell id="Ax1zpurAWLt4gDFZBOKB-34" value="&lt;b&gt;&lt;font color=&quot;#ff0000&quot; style=&quot;font-size: 20px;&quot;&gt;3&lt;/font&gt;&lt;/b&gt;" style="text;html=1;strokeColor=none;fillColor=none;align=center;verticalAlign=middle;whiteSpace=wrap;rounded=0;" vertex="1" parent="1">
          <mxGeometry x="580" y="110" width="20" height="20" as="geometry" />
        </mxCell>
        <mxCell id="Ax1zpurAWLt4gDFZBOKB-35" value="&lt;b&gt;&lt;font color=&quot;#ff0000&quot; style=&quot;font-size: 20px;&quot;&gt;4&lt;/font&gt;&lt;/b&gt;" style="text;html=1;strokeColor=none;fillColor=none;align=center;verticalAlign=middle;whiteSpace=wrap;rounded=0;" vertex="1" parent="1">
          <mxGeometry x="680" y="110" width="20" height="20" as="geometry" />
        </mxCell>
        <mxCell id="Ax1zpurAWLt4gDFZBOKB-36" value="&lt;b&gt;&lt;font color=&quot;#ff0000&quot; style=&quot;font-size: 20px;&quot;&gt;5&lt;/font&gt;&lt;/b&gt;" style="text;html=1;strokeColor=none;fillColor=none;align=center;verticalAlign=middle;whiteSpace=wrap;rounded=0;" vertex="1" parent="1">
          <mxGeometry x="780" y="110" width="20" height="20" as="geometry" />
        </mxCell>
        <mxCell id="Ax1zpurAWLt4gDFZBOKB-37" value="&lt;b&gt;&lt;font color=&quot;#ff0000&quot; style=&quot;font-size: 20px;&quot;&gt;6&lt;/font&gt;&lt;/b&gt;" style="text;html=1;strokeColor=none;fillColor=none;align=center;verticalAlign=middle;whiteSpace=wrap;rounded=0;" vertex="1" parent="1">
          <mxGeometry x="580" y="210" width="20" height="20" as="geometry" />
        </mxCell>
        <mxCell id="Ax1zpurAWLt4gDFZBOKB-38" value="&lt;b&gt;&lt;font color=&quot;#ff0000&quot; style=&quot;font-size: 20px;&quot;&gt;9&lt;/font&gt;&lt;/b&gt;" style="text;html=1;strokeColor=none;fillColor=none;align=center;verticalAlign=middle;whiteSpace=wrap;rounded=0;" vertex="1" parent="1">
          <mxGeometry x="580" y="310" width="20" height="20" as="geometry" />
        </mxCell>
        <mxCell id="Ax1zpurAWLt4gDFZBOKB-39" value="&lt;b&gt;&lt;font color=&quot;#ff0000&quot; style=&quot;font-size: 20px;&quot;&gt;7&lt;/font&gt;&lt;/b&gt;" style="text;html=1;strokeColor=none;fillColor=none;align=center;verticalAlign=middle;whiteSpace=wrap;rounded=0;" vertex="1" parent="1">
          <mxGeometry x="680" y="210" width="20" height="20" as="geometry" />
        </mxCell>
        <mxCell id="Ax1zpurAWLt4gDFZBOKB-40" value="&lt;b&gt;&lt;font color=&quot;#ff0000&quot; style=&quot;font-size: 20px;&quot;&gt;8&lt;/font&gt;&lt;/b&gt;" style="text;html=1;strokeColor=none;fillColor=none;align=center;verticalAlign=middle;whiteSpace=wrap;rounded=0;" vertex="1" parent="1">
          <mxGeometry x="780" y="210" width="20" height="20" as="geometry" />
        </mxCell>
        <mxCell id="Ax1zpurAWLt4gDFZBOKB-44" value="&lt;font style=&quot;font-size: 20px;&quot;&gt;&lt;b&gt;FF model&lt;/b&gt;&lt;/font&gt;" style="text;html=1;strokeColor=none;fillColor=none;align=center;verticalAlign=middle;whiteSpace=wrap;rounded=0;" vertex="1" parent="1">
          <mxGeometry x="380.63" y="95" width="125" height="30" as="geometry" />
        </mxCell>
        <mxCell id="Ax1zpurAWLt4gDFZBOKB-45" value="&lt;font style=&quot;font-size: 20px;&quot;&gt;Device 1&lt;/font&gt;" style="text;html=1;strokeColor=none;fillColor=none;align=center;verticalAlign=middle;whiteSpace=wrap;rounded=0;" vertex="1" parent="1">
          <mxGeometry x="350" y="130" width="82.5" height="30" as="geometry" />
        </mxCell>
        <mxCell id="Ax1zpurAWLt4gDFZBOKB-46" value="&lt;font style=&quot;font-size: 20px;&quot;&gt;Device 2&lt;/font&gt;" style="text;html=1;strokeColor=none;fillColor=none;align=center;verticalAlign=middle;whiteSpace=wrap;rounded=0;" vertex="1" parent="1">
          <mxGeometry x="350" y="219" width="82.5" height="30" as="geometry" />
        </mxCell>
        <mxCell id="Ax1zpurAWLt4gDFZBOKB-54" style="edgeStyle=orthogonalEdgeStyle;rounded=0;orthogonalLoop=1;jettySize=auto;html=1;entryX=0.5;entryY=0;entryDx=0;entryDy=0;strokeWidth=5;" edge="1" parent="1" source="Ax1zpurAWLt4gDFZBOKB-47" target="Ax1zpurAWLt4gDFZBOKB-48">
          <mxGeometry relative="1" as="geometry" />
        </mxCell>
        <mxCell id="Ax1zpurAWLt4gDFZBOKB-47" value="&lt;font style=&quot;font-size: 20px;&quot;&gt;Layer 1&lt;/font&gt;" style="rounded=0;whiteSpace=wrap;html=1;" vertex="1" parent="1">
          <mxGeometry x="385" y="160" width="115" height="40" as="geometry" />
        </mxCell>
        <mxCell id="Ax1zpurAWLt4gDFZBOKB-56" style="edgeStyle=orthogonalEdgeStyle;rounded=0;orthogonalLoop=1;jettySize=auto;html=1;entryX=-0.001;entryY=0.809;entryDx=0;entryDy=0;entryPerimeter=0;strokeWidth=5;" edge="1" parent="1" source="Ax1zpurAWLt4gDFZBOKB-48" target="Ax1zpurAWLt4gDFZBOKB-24">
          <mxGeometry relative="1" as="geometry">
            <Array as="points">
              <mxPoint x="540" y="269" />
              <mxPoint x="540" y="181" />
            </Array>
          </mxGeometry>
        </mxCell>
        <mxCell id="Ax1zpurAWLt4gDFZBOKB-48" value="&lt;font style=&quot;font-size: 20px;&quot;&gt;Layer 2&lt;/font&gt;" style="rounded=0;whiteSpace=wrap;html=1;" vertex="1" parent="1">
          <mxGeometry x="384.99" y="249" width="115" height="40" as="geometry" />
        </mxCell>
        <mxCell id="Ax1zpurAWLt4gDFZBOKB-53" style="edgeStyle=orthogonalEdgeStyle;rounded=0;orthogonalLoop=1;jettySize=auto;html=1;strokeWidth=5;" edge="1" parent="1" source="Ax1zpurAWLt4gDFZBOKB-52" target="Ax1zpurAWLt4gDFZBOKB-50">
          <mxGeometry relative="1" as="geometry" />
        </mxCell>
        <mxCell id="Ax1zpurAWLt4gDFZBOKB-52" value="" style="shape=curlyBracket;whiteSpace=wrap;html=1;rounded=1;flipH=1;labelPosition=right;verticalLabelPosition=middle;align=left;verticalAlign=middle;strokeWidth=5;size=0.5;" vertex="1" parent="1">
          <mxGeometry x="300" y="20" width="30" height="320" as="geometry" />
        </mxCell>
        <mxCell id="Ax1zpurAWLt4gDFZBOKB-57" value="&lt;b&gt;&lt;font color=&quot;#00ff00&quot; style=&quot;font-size: 20px;&quot;&gt;6.2&lt;/font&gt;&lt;/b&gt;" style="text;html=1;strokeColor=none;fillColor=none;align=center;verticalAlign=middle;whiteSpace=wrap;rounded=0;" vertex="1" parent="1">
          <mxGeometry x="583" y="37" width="30" height="20" as="geometry" />
        </mxCell>
        <mxCell id="Ax1zpurAWLt4gDFZBOKB-58" value="&lt;b&gt;&lt;font color=&quot;#00ff00&quot; style=&quot;font-size: 20px;&quot;&gt;0.9&lt;/font&gt;&lt;/b&gt;" style="text;html=1;strokeColor=none;fillColor=none;align=center;verticalAlign=middle;whiteSpace=wrap;rounded=0;" vertex="1" parent="1">
          <mxGeometry x="683" y="40" width="30" height="20" as="geometry" />
        </mxCell>
        <mxCell id="Ax1zpurAWLt4gDFZBOKB-59" value="&lt;b&gt;&lt;font color=&quot;#00ff00&quot; style=&quot;font-size: 20px;&quot;&gt;1.2&lt;/font&gt;&lt;/b&gt;" style="text;html=1;strokeColor=none;fillColor=none;align=center;verticalAlign=middle;whiteSpace=wrap;rounded=0;" vertex="1" parent="1">
          <mxGeometry x="782" y="40" width="30" height="20" as="geometry" />
        </mxCell>
        <mxCell id="Ax1zpurAWLt4gDFZBOKB-60" value="&lt;b&gt;&lt;font color=&quot;#00ff00&quot; style=&quot;font-size: 20px;&quot;&gt;3.5&lt;/font&gt;&lt;/b&gt;" style="text;html=1;strokeColor=none;fillColor=none;align=center;verticalAlign=middle;whiteSpace=wrap;rounded=0;" vertex="1" parent="1">
          <mxGeometry x="583" y="137" width="30" height="20" as="geometry" />
        </mxCell>
        <mxCell id="Ax1zpurAWLt4gDFZBOKB-61" value="&lt;b&gt;&lt;font color=&quot;#00ff00&quot; style=&quot;font-size: 20px;&quot;&gt;2.2&lt;/font&gt;&lt;/b&gt;" style="text;html=1;strokeColor=none;fillColor=none;align=center;verticalAlign=middle;whiteSpace=wrap;rounded=0;" vertex="1" parent="1">
          <mxGeometry x="683" y="140" width="30" height="20" as="geometry" />
        </mxCell>
        <mxCell id="Ax1zpurAWLt4gDFZBOKB-62" value="&lt;b&gt;&lt;font color=&quot;#00ff00&quot; style=&quot;font-size: 20px;&quot;&gt;9.3&lt;/font&gt;&lt;/b&gt;" style="text;html=1;strokeColor=none;fillColor=none;align=center;verticalAlign=middle;whiteSpace=wrap;rounded=0;" vertex="1" parent="1">
          <mxGeometry x="782" y="140" width="30" height="20" as="geometry" />
        </mxCell>
        <mxCell id="Ax1zpurAWLt4gDFZBOKB-63" value="&lt;b&gt;&lt;font color=&quot;#00ff00&quot; style=&quot;font-size: 20px;&quot;&gt;12.3&lt;/font&gt;&lt;/b&gt;" style="text;html=1;strokeColor=none;fillColor=none;align=center;verticalAlign=middle;whiteSpace=wrap;rounded=0;" vertex="1" parent="1">
          <mxGeometry x="587" y="239" width="30" height="20" as="geometry" />
        </mxCell>
        <mxCell id="Ax1zpurAWLt4gDFZBOKB-64" value="&lt;b&gt;&lt;font color=&quot;#00ff00&quot; style=&quot;font-size: 20px;&quot;&gt;4.6&lt;/font&gt;&lt;/b&gt;" style="text;html=1;strokeColor=none;fillColor=none;align=center;verticalAlign=middle;whiteSpace=wrap;rounded=0;" vertex="1" parent="1">
          <mxGeometry x="683" y="241.5" width="30" height="20" as="geometry" />
        </mxCell>
        <mxCell id="Ax1zpurAWLt4gDFZBOKB-65" value="&lt;b&gt;&lt;font color=&quot;#00ff00&quot; style=&quot;font-size: 20px;&quot;&gt;5.8&lt;/font&gt;&lt;/b&gt;" style="text;html=1;strokeColor=none;fillColor=none;align=center;verticalAlign=middle;whiteSpace=wrap;rounded=0;" vertex="1" parent="1">
          <mxGeometry x="782" y="241.5" width="30" height="20" as="geometry" />
        </mxCell>
        <mxCell id="Ax1zpurAWLt4gDFZBOKB-66" value="&lt;b&gt;&lt;font color=&quot;#00ff00&quot; style=&quot;font-size: 20px;&quot;&gt;8.2&lt;/font&gt;&lt;/b&gt;" style="text;html=1;strokeColor=none;fillColor=none;align=center;verticalAlign=middle;whiteSpace=wrap;rounded=0;" vertex="1" parent="1">
          <mxGeometry x="583.5" y="338.5" width="30" height="20" as="geometry" />
        </mxCell>
        <mxCell id="Ax1zpurAWLt4gDFZBOKB-69" value="&lt;span style=&quot;font-family: sans-serif; font-style: normal; font-variant-ligatures: normal; font-variant-caps: normal; font-weight: 400; letter-spacing: normal; orphans: 2; text-indent: 0px; text-transform: none; widows: 2; word-spacing: 0px; -webkit-text-stroke-width: 0px; text-decoration-thickness: initial; text-decoration-style: initial; text-decoration-color: initial; float: none; display: inline !important;&quot;&gt;&lt;font color=&quot;#00ff00&quot; style=&quot;font-size: 50px;&quot;&gt;✔&lt;/font&gt;&lt;/span&gt;" style="text;whiteSpace=wrap;html=1;align=center;" vertex="1" parent="1">
          <mxGeometry x="617" y="225" width="50" height="50" as="geometry" />
        </mxCell>
        <mxCell id="Ax1zpurAWLt4gDFZBOKB-70" value="&lt;b&gt;&lt;font color=&quot;#00ff00&quot; style=&quot;font-size: 15px;&quot;&gt;goodness&lt;/font&gt;&lt;/b&gt;" style="text;html=1;strokeColor=none;fillColor=none;align=center;verticalAlign=middle;whiteSpace=wrap;rounded=0;" vertex="1" parent="1">
          <mxGeometry x="495.99" y="151" width="100" height="23" as="geometry" />
        </mxCell>
      </root>
    </mxGraphModel>
  </diagram>
</mxfile>
